<svg xmlns="http://www.w3.org/2000/svg" width="200" height="60" fill="none" viewBox="0 0 200 60"><path fill="#fff" d="M0 0h200v59.26H0z"/><g clip-path="url(#a)"><path fill="#000" d="M192.593 0H7.407A7.407 7.407 0 0 0 0 7.407v44.445a7.407 7.407 0 0 0 7.407 7.407h185.186A7.407 7.407 0 0 0 200 51.852V7.407A7.407 7.407 0 0 0 192.593 0"/><path fill="#A6A6A6" d="M192.593 1.185a6.22 6.22 0 0 1 6.222 6.222v44.445a6.22 6.22 0 0 1-6.222 6.222H7.407a6.22 6.22 0 0 1-6.222-6.222V7.407a6.22 6.22 0 0 1 6.222-6.222zm0-1.185H7.407A7.407 7.407 0 0 0 0 7.407v44.445a7.41 7.41 0 0 0 7.407 7.407h185.186A7.406 7.406 0 0 0 200 51.852V7.407A7.404 7.404 0 0 0 192.593 0"/><path fill="#fff" stroke="#fff" stroke-miterlimit="10" stroke-width="0.411304" d="M70.252 15.17a4.03 4.03 0 0 1-1.111 2.963 4.3 4.3 0 0 1-3.26 1.304 4.44 4.44 0 0 1-3.274-1.333 4.726 4.726 0 0 1 0-6.608 4.68 4.68 0 0 1 5.097-.963c.534.22 1.01.56 1.392.993l-.785.785a2.96 2.96 0 0 0-2.43-1.067 3.555 3.555 0 1 0 2.49 6.119 2.85 2.85 0 0 0 .74-1.807h-3.23v-1.067h4.312q.05.338.059.681Zm6.785-3.703h-4v2.814h3.644v1.067h-3.644v2.815h4v1.096H71.88V10.37h5.156zm4.859 7.793h-1.14v-7.793h-2.49V10.37h6.179v1.097h-2.549zm6.904 0v-8.89h1.14v8.89zm6.207 0h-1.14v-7.793h-2.49V10.37h6.104v1.097h-2.474zm14.045-1.156a4.61 4.61 0 0 1-5.023 1 4.6 4.6 0 0 1-1.496-1 4.803 4.803 0 0 1 0-6.578 4.34 4.34 0 0 1 3.26-1.348 4.45 4.45 0 0 1 3.259 1.348 4.55 4.55 0 0 1 1.304 3.289 4.46 4.46 0 0 1-1.304 3.289Zm-5.674-.741a3.38 3.38 0 0 0 2.415 1.01 3.4 3.4 0 0 0 2.414-1.01 3.76 3.76 0 0 0 0-5.096 3.38 3.38 0 0 0-2.414-1.01 3.4 3.4 0 0 0-2.415 1.01 3.76 3.76 0 0 0 0 5.096Zm8.592 1.897v-8.89h1.378l4.326 6.919V10.37h1.141v8.89h-1.185l-4.519-7.245v7.244z"/><path fill="#fff" d="M100.948 32.222a6.31 6.31 0 1 0 6.326 6.296 6.21 6.21 0 0 0-6.326-6.296m0 10.119a3.823 3.823 0 1 1 3.556-3.823 3.66 3.66 0 0 1-.972 2.661 3.64 3.64 0 0 1-2.584 1.162M87.141 32.222a6.31 6.31 0 1 0 6.326 6.296 6.207 6.207 0 0 0-6.326-6.296m0 10.119a3.823 3.823 0 1 1 3.555-3.823 3.643 3.643 0 0 1-3.555 3.823m-16.415-8.178v2.667h6.4a5.6 5.6 0 0 1-1.482 3.363 6.55 6.55 0 0 1-4.948 1.955 7.111 7.111 0 1 1 0-14.222 6.87 6.87 0 0 1 4.86 1.91l1.88-1.88a9.33 9.33 0 0 0-6.71-2.697 9.793 9.793 0 1 0 0 19.57 9 9 0 0 0 6.83-2.74 8.9 8.9 0 0 0 2.31-6.267 9.3 9.3 0 0 0-.133-1.66zm67.126 2.074a5.93 5.93 0 0 0-5.393-4.015 5.93 5.93 0 0 0-4.327 1.865 5.93 5.93 0 0 0-1.599 4.431 6.27 6.27 0 0 0 8.389 5.955 6.27 6.27 0 0 0 3.108-2.443l-2.149-1.482a3.57 3.57 0 0 1-3.096 1.733 3.19 3.19 0 0 1-3.052-1.91l8.43-3.482zm-8.593 2.104a3.46 3.46 0 0 1 .877-2.539 3.47 3.47 0 0 1 2.427-1.15A2.43 2.43 0 0 1 134.889 36zm-6.844 6.103h2.77V25.926h-2.77zm-4.534-10.815h-.103a4.36 4.36 0 0 0-3.319-1.481 6.311 6.311 0 0 0 0 12.607 4.27 4.27 0 0 0 3.319-1.481h.103v.904c0 2.415-1.289 3.703-3.363 3.703a3.5 3.5 0 0 1-3.185-2.237l-2.4.993a5.92 5.92 0 0 0 5.585 3.733c3.245 0 5.926-1.91 5.926-6.563V32.592h-2.563zm-3.185 8.712a3.825 3.825 0 0 1-3.584-3.815 3.824 3.824 0 0 1 3.584-3.815 3.54 3.54 0 0 1 3.378 3.807 3.53 3.53 0 0 1-3.378 3.823m36.134-16.415h-6.638v18.518h2.771v-7.022h3.867a5.76 5.76 0 0 0 5.696-3.448 5.763 5.763 0 0 0-5.696-8.048m0 8.889h-3.867v-6.311h3.926a3.172 3.172 0 0 1 2.929 4.383 3.17 3.17 0 0 1-2.929 1.957zm17.096-2.652a5.17 5.17 0 0 0-4.934 2.83l2.445 1.022a2.64 2.64 0 0 1 2.533-1.349 2.67 2.67 0 0 1 1.982.572 2.67 2.67 0 0 1 .981 1.814v.178a6.2 6.2 0 0 0-2.889-.712c-2.637 0-5.333 1.482-5.333 4.178a4.27 4.27 0 0 0 1.441 3.013 4.28 4.28 0 0 0 3.166 1.061 3.92 3.92 0 0 0 3.526-1.807h.089v1.481h2.667v-7.126c0-3.244-2.459-5.125-5.615-5.125zm-.341 10.148c-.904 0-2.163-.46-2.163-1.57 0-1.482 1.57-1.986 2.963-1.986a4.93 4.93 0 0 1 2.519.623 3.35 3.35 0 0 1-3.26 2.963zm15.733-9.718-3.17 8.03h-.089l-3.289-8.03h-2.963l4.934 11.23-2.815 6.236h2.889l7.585-17.466zM158.43 44.444h2.755V25.926h-2.755z"/><path fill="url(#b)" d="M15.467 11.17a2.96 2.96 0 0 0-.696 2.075v32.77c-.05.756.2 1.502.696 2.074l.104.119 18.355-18.356v-.444L15.571 11.067z"/><path fill="url(#c)" d="m40 35.97-6.074-6.118v-.444L40 23.289l.133.089 7.275 4.119c2.074 1.17 2.074 3.096 0 4.281l-7.245 4.119z"/><path fill="url(#d)" d="m40.178 35.882-6.252-6.252-18.46 18.46a2.4 2.4 0 0 0 3.067.103z"/><path fill="url(#e)" d="M40.178 23.378 18.533 11.08a2.386 2.386 0 0 0-3.066.09l18.459 18.46z"/><path fill="#000" d="M40 35.748 18.533 47.97a2.46 2.46 0 0 1-2.963 0l-.103.104.103.119a2.46 2.46 0 0 0 2.963 0L40.178 35.88z" opacity="0.2"/><path fill="#000" d="M15.467 47.882a2.96 2.96 0 0 1-.652-2.09v.223c-.05.756.2 1.502.696 2.074l.104-.104zm31.94-16.326L40 35.748l.133.134 7.274-4.119a2.59 2.59 0 0 0 1.57-2.133 2.76 2.76 0 0 1-1.57 1.926" opacity="0.12"/><path fill="#fff" d="m18.533 11.289 28.874 16.415a2.76 2.76 0 0 1 1.57 1.926 2.59 2.59 0 0 0-1.57-2.134L18.533 11.082c-2.06-1.186-3.763-.208-3.763 2.162v.223c.045-2.37 1.704-3.348 3.763-2.178" opacity="0.25"/></g><defs><linearGradient id="b" x1="32.2965" x2="7.43722" y1="12.9039" y2="37.7632" gradientUnits="userSpaceOnUse"><stop stop-color="#00A0FF"/><stop offset="0.01" stop-color="#00A1FF"/><stop offset="0.26" stop-color="#00BEFF"/><stop offset="0.51" stop-color="#00D2FF"/><stop offset="0.76" stop-color="#00DFFF"/><stop offset="1" stop-color="#00E3FF"/></linearGradient><linearGradient id="c" x1="50.1187" x2="14.2816" y1="29.6298" y2="29.6298" gradientUnits="userSpaceOnUse"><stop stop-color="#FFE000"/><stop offset="0.41" stop-color="#FFBD00"/><stop offset="0.78" stop-color="orange"/><stop offset="1" stop-color="#FF9C00"/></linearGradient><linearGradient id="d" x1="36.7851" x2="3.06658" y1="33.0373" y2="66.741" gradientUnits="userSpaceOnUse"><stop stop-color="#FF3A44"/><stop offset="1" stop-color="#C31162"/></linearGradient><linearGradient id="e" x1="10.8147" x2="25.8666" y1="0.266622" y2="15.3185" gradientUnits="userSpaceOnUse"><stop stop-color="#32A071"/><stop offset="0.07" stop-color="#2DA771"/><stop offset="0.48" stop-color="#15CF74"/><stop offset="0.8" stop-color="#06E775"/><stop offset="1" stop-color="#00F076"/></linearGradient><clipPath id="a"><path fill="#fff" d="M0 0h200v59.26H0z"/></clipPath></defs></svg>