<svg aria-hidden="true" style="position: absolute; width: 0; height: 0; overflow: hidden;" version="1.1" xmlns="http://www.w3.org/2000/svg" xmlns:xlink="http://www.w3.org/1999/xlink">
<defs>
<symbol id="icon-menu-burger" viewBox="0 0 32 32">
<path stroke-linejoin="round" stroke-linecap="round" stroke-miterlimit="4" stroke-width="1.6" d="M6.4 11.2h19.2M6.4 17.6h19.2M6.4 24h19.2"></path>
</symbol>
<symbol id="icon-ph_arrow-up-light" viewBox="0 0 32 32">
<path d="M14.53 6.47c0.14 0.141 0.219 0.331 0.219 0.53s-0.079 0.389-0.219 0.53l-7.719 7.72h20.189c0.199 0 0.39 0.079 0.53 0.22s0.22 0.331 0.22 0.53-0.079 0.39-0.22 0.53c-0.141 0.141-0.331 0.22-0.53 0.22h-20.189l7.719 7.72c0.133 0.142 0.205 0.33 0.201 0.525s-0.082 0.38-0.22 0.517c-0.137 0.137-0.323 0.216-0.517 0.22s-0.382-0.069-0.525-0.201l-9-9c-0.14-0.141-0.219-0.331-0.219-0.53s0.079-0.389 0.219-0.53l9-9c0.141-0.14 0.331-0.219 0.53-0.219s0.389 0.079 0.53 0.219z"></path>
</symbol>
<symbol id="icon-x" viewBox="0 0 32 32">
<path fill="none" stroke="#fafafa" style="stroke: var(--color1, #fafafa)" stroke-linejoin="round" stroke-linecap="round" stroke-miterlimit="4" stroke-width="2.2857" d="M24 8l-16 16"></path>
<path fill="none" stroke="#fafafa" style="stroke: var(--color1, #fafafa)" stroke-linejoin="round" stroke-linecap="round" stroke-miterlimit="4" stroke-width="2.2857" d="M8 8l16 16"></path>
</symbol>
</defs>
</svg>
