<svg width="24" height="24" viewBox="0 0 24 24" fill="none" xmlns="http://www.w3.org/2000/svg">
<path d="M0.48198 0.370432C0.176682 0.657359 0 1.10408 0 1.6826V22.318C0 22.8965 0.176682 23.3432 0.48198 23.6301L0.557331 23.6931L13.437 12.1344V11.8615L0.557331 0.302784L0.48198 0.370432Z" fill="url(#paint0_linear_74_3703)"/>
<path d="M17.7255 15.9893L13.437 12.1344V11.8615L17.7307 8.00664L17.8268 8.0568L22.9116 10.6543C24.3628 11.3914 24.3628 12.6045 22.9116 13.3463L17.8268 15.9391L17.7255 15.9893Z" fill="url(#paint1_linear_74_3703)"/>
<path d="M17.8268 15.9392L13.437 11.998L0.481995 23.6302C0.963976 24.0851 1.74996 24.1399 2.64376 23.685L17.8268 15.9392Z" fill="url(#paint2_linear_74_3703)"/>
<path d="M17.8268 8.05689L2.64376 0.31105C1.74996 -0.139167 0.963976 -0.0843502 0.481995 0.370533L13.437 11.998L17.8268 8.05689Z" fill="url(#paint3_linear_74_3703)"/>
<defs>
<linearGradient id="paint0_linear_74_3703" x1="12.2935" y1="22.5329" x2="-3.27554" y2="5.19158" gradientUnits="userSpaceOnUse">
<stop stop-color="#00A0FF"/>
<stop offset="0.0066" stop-color="#00A1FF"/>
<stop offset="0.2601" stop-color="#00BEFF"/>
<stop offset="0.5122" stop-color="#00D2FF"/>
<stop offset="0.7604" stop-color="#00DFFF"/>
<stop offset="1" stop-color="#00E3FF"/>
</linearGradient>
<linearGradient id="paint1_linear_74_3703" x1="24.8013" y1="11.9966" x2="-0.346873" y2="11.9966" gradientUnits="userSpaceOnUse">
<stop stop-color="#FFE000"/>
<stop offset="0.4087" stop-color="#FFBD00"/>
<stop offset="0.7754" stop-color="#FFA500"/>
<stop offset="1" stop-color="#FF9C00"/>
</linearGradient>
<linearGradient id="paint2_linear_74_3703" x1="15.4398" y1="9.85553" x2="-5.67303" y2="-13.6607" gradientUnits="userSpaceOnUse">
<stop stop-color="#FF3A44"/>
<stop offset="1" stop-color="#C31162"/>
</linearGradient>
<linearGradient id="paint3_linear_74_3703" x1="-2.77906" y1="30.4955" x2="6.64877" y2="19.9946" gradientUnits="userSpaceOnUse">
<stop stop-color="#32A071"/>
<stop offset="0.0685" stop-color="#2DA771"/>
<stop offset="0.4762" stop-color="#15CF74"/>
<stop offset="0.8009" stop-color="#06E775"/>
<stop offset="1" stop-color="#00F076"/>
</linearGradient>
</defs>
</svg>
