<svg width="200" height="60" viewBox="0 0 200 60" fill="none" xmlns="http://www.w3.org/2000/svg">
<rect width="200" height="59.2593" fill="white"/>
<g clip-path="url(#clip0_90_6573)">
<path d="M192.593 0H7.40741C3.31641 0 0 3.31641 0 7.40741V51.8519C0 55.9429 3.31641 59.2593 7.40741 59.2593H192.593C196.684 59.2593 200 55.9429 200 51.8519V7.40741C200 3.31641 196.684 0 192.593 0Z" fill="black"/>
<path d="M192.593 1.18519C194.243 1.18519 195.825 1.84074 196.992 3.00763C198.159 4.17453 198.815 5.75717 198.815 7.40741V51.8519C198.815 53.5021 198.159 55.0847 196.992 56.2516C195.825 57.4185 194.243 58.0741 192.593 58.0741H7.40741C5.75717 58.0741 4.17452 57.4185 3.00763 56.2516C1.84074 55.0847 1.18519 53.5021 1.18519 51.8519V7.40741C1.18519 5.75717 1.84074 4.17453 3.00763 3.00763C4.17452 1.84074 5.75717 1.18519 7.40741 1.18519H192.593ZM192.593 0H7.40741C5.44284 0 3.55874 0.780421 2.16958 2.16958C0.780421 3.55874 0 5.44284 0 7.40741V51.8519C0 53.8164 0.780421 55.7005 2.16958 57.0897C3.55874 58.4788 5.44284 59.2593 7.40741 59.2593H192.593C194.557 59.2593 196.441 58.4788 197.83 57.0897C199.22 55.7005 200 53.8164 200 51.8519V7.40741C200 5.44284 199.22 3.55874 197.83 2.16958C196.441 0.780421 194.557 0 192.593 0Z" fill="#A6A6A6"/>
<path d="M70.2519 15.1703C70.2762 15.7136 70.1903 16.2562 69.9993 16.7654C69.8084 17.2746 69.5163 17.7399 69.1408 18.1332C68.7199 18.5678 68.212 18.9085 67.6504 19.1332C67.0887 19.3578 66.4859 19.4613 65.8815 19.437C65.2736 19.4505 64.6694 19.3392 64.1062 19.1098C63.543 18.8805 63.0329 18.538 62.6074 18.1036C61.7442 17.2206 61.2608 16.0348 61.2608 14.7999C61.2608 13.565 61.7442 12.3792 62.6074 11.4962C63.2674 10.8513 64.1033 10.4158 65.01 10.2445C65.9168 10.0732 66.8539 10.1736 67.7037 10.5332C68.238 10.7528 68.7145 11.0925 69.0963 11.5258L68.3111 12.311C68.0169 11.9566 67.6442 11.6757 67.2224 11.4905C66.8007 11.3053 66.3415 11.2211 65.8815 11.2444C65.3008 11.2484 64.7299 11.3946 64.2188 11.6702C63.7076 11.9457 63.2717 12.3423 62.9492 12.8253C62.6267 13.3082 62.4274 13.8628 62.3688 14.4406C62.3101 15.0183 62.3938 15.6016 62.6126 16.1396C62.8314 16.6775 63.1787 17.1536 63.624 17.5263C64.0693 17.8991 64.5991 18.1571 65.1672 18.2778C65.7352 18.3984 66.3242 18.3782 66.8826 18.2187C67.441 18.0592 67.9518 17.7654 68.3704 17.3629C68.8229 16.8667 69.0853 16.2265 69.1111 15.5555H65.8815V14.4888H70.1926C70.2264 14.7145 70.2461 14.9421 70.2519 15.1703Z" fill="white" stroke="white" stroke-width="0.411304" stroke-miterlimit="10"/>
<path d="M77.0369 11.4667H73.0369V14.2815H76.6813V15.3481H73.0369V18.163H77.0369V19.2593H71.8814V10.3704H77.0369V11.4667Z" fill="white" stroke="white" stroke-width="0.411304" stroke-miterlimit="10"/>
<path d="M81.8964 19.2593H80.7557V11.4667H78.2668V10.3704H84.4446V11.4667H81.8964V19.2593Z" fill="white" stroke="white" stroke-width="0.411304" stroke-miterlimit="10"/>
<path d="M88.8 19.2593V10.3704H89.9407V19.2593H88.8Z" fill="white" stroke="white" stroke-width="0.411304" stroke-miterlimit="10"/>
<path d="M95.0073 19.2593H93.8665V11.4667H91.3776V10.3704H97.4814V11.4667H95.0073V19.2593Z" fill="white" stroke="white" stroke-width="0.411304" stroke-miterlimit="10"/>
<path d="M109.052 18.1037C108.624 18.5319 108.116 18.8716 107.557 19.1034C106.997 19.3352 106.398 19.4545 105.793 19.4545C105.187 19.4545 104.588 19.3352 104.029 19.1034C103.469 18.8716 102.961 18.5319 102.533 18.1037C101.696 17.2134 101.229 16.0371 101.229 14.8148C101.229 13.5925 101.696 12.4162 102.533 11.5259C102.952 11.0856 103.458 10.7381 104.02 10.5059C104.581 10.2736 105.185 10.1619 105.793 10.1778C106.399 10.1682 107.001 10.2828 107.562 10.5147C108.122 10.7465 108.629 11.0907 109.052 11.5259C109.478 11.9592 109.813 12.4735 110.037 13.0384C110.26 13.6033 110.369 14.2073 110.356 14.8148C110.375 15.423 110.269 16.0288 110.045 16.5945C109.821 17.1603 109.483 17.6739 109.052 18.1037ZM103.378 17.3629C103.693 17.6828 104.069 17.9367 104.484 18.11C104.898 18.2834 105.343 18.3726 105.793 18.3726C106.242 18.3726 106.687 18.2834 107.101 18.11C107.516 17.9367 107.892 17.6828 108.207 17.3629C108.847 16.6683 109.201 15.7588 109.201 14.8148C109.201 13.8708 108.847 12.9613 108.207 12.2666C107.892 11.9468 107.516 11.6929 107.101 11.5196C106.687 11.3462 106.242 11.257 105.793 11.257C105.343 11.257 104.898 11.3462 104.484 11.5196C104.069 11.6929 103.693 11.9468 103.378 12.2666C102.738 12.9613 102.384 13.8708 102.384 14.8148C102.384 15.7588 102.738 16.6683 103.378 17.3629Z" fill="white" stroke="white" stroke-width="0.411304" stroke-miterlimit="10"/>
<path d="M111.97 19.2593V10.3704H113.348L117.674 17.2889V15.5704V10.3704H118.815V19.2593H117.63L113.111 12.0148V13.7185V19.2593H111.97Z" fill="white" stroke="white" stroke-width="0.411304" stroke-miterlimit="10"/>
<path d="M100.948 32.2221C99.6998 32.225 98.4805 32.598 97.4443 33.2939C96.4081 33.9898 95.6015 34.9774 95.1265 36.1317C94.6516 37.286 94.5296 38.5553 94.7759 39.7789C95.0223 41.0026 95.626 42.1257 96.5107 43.0063C97.3954 43.8868 98.5214 44.4853 99.7462 44.7259C100.971 44.9665 102.24 44.8386 103.392 44.3582C104.544 43.8778 105.528 43.0666 106.219 42.0271C106.91 40.9876 107.277 39.7666 107.274 38.5184C107.286 37.6857 107.13 36.8591 106.816 36.0878C106.502 35.3165 106.036 34.6162 105.446 34.0288C104.856 33.4413 104.154 32.9786 103.381 32.6682C102.608 32.3578 101.781 32.2061 100.948 32.2221ZM100.948 42.3406C100.183 42.3941 99.4195 42.2162 98.7569 41.8301C98.0943 41.4439 97.5631 40.8673 97.2325 40.1753C96.9019 39.4833 96.7871 38.7078 96.9031 37.9497C97.0191 37.1916 97.3605 36.4859 97.8828 35.9244C98.4052 35.3628 99.0844 34.9714 99.8322 34.801C100.58 34.6306 101.362 34.6891 102.076 34.9689C102.79 35.2486 103.403 35.7368 103.836 36.3698C104.269 37.0028 104.502 37.7514 104.504 38.5184C104.527 39.0043 104.454 39.4901 104.287 39.9471C104.12 40.4042 103.863 40.8231 103.532 41.1794C103.201 41.5356 102.801 41.8219 102.357 42.0213C101.914 42.2208 101.434 42.3293 100.948 42.3406ZM87.1406 32.2221C85.8924 32.225 84.6731 32.598 83.6369 33.2939C82.6007 33.9898 81.7941 34.9774 81.3191 36.1317C80.8441 37.286 80.7221 38.5553 80.9685 39.7789C81.2149 41.0026 81.8186 42.1257 82.7033 43.0063C83.588 43.8868 84.714 44.4853 85.9388 44.7259C87.1636 44.9665 88.4322 44.8386 89.5843 44.3582C90.7364 43.8778 91.7201 43.0666 92.4112 42.0271C93.1022 40.9876 93.4695 39.7666 93.4666 38.5184C93.4786 37.6857 93.3231 36.8591 93.009 36.0878C92.695 35.3165 92.229 34.6162 91.6388 34.0288C91.0486 33.4413 90.3461 32.9786 89.5734 32.6682C88.8006 32.3578 87.9733 32.2061 87.1406 32.2221ZM87.1406 42.3406C86.3756 42.3941 85.6121 42.2162 84.9495 41.8301C84.2868 41.4439 83.7557 40.8673 83.4251 40.1753C83.0945 39.4833 82.9797 38.7078 83.0957 37.9497C83.2117 37.1916 83.553 36.4859 84.0754 35.9244C84.5978 35.3628 85.277 34.9714 86.0247 34.801C86.7725 34.6306 87.5542 34.6891 88.2683 34.9689C88.9824 35.2486 89.5958 35.7368 90.0288 36.3698C90.4618 37.0028 90.6943 37.7514 90.6962 38.5184C90.7201 39.0043 90.6464 39.4901 90.4795 39.9471C90.3126 40.4042 90.0559 40.8231 89.7246 41.1794C89.3932 41.5356 88.9938 41.8219 88.55 42.0213C88.1063 42.2208 87.627 42.3293 87.1406 42.3406ZM70.7258 34.1628V36.8295H77.1258C77.0255 38.0855 76.5034 39.2707 75.6443 40.1925C75.0024 40.8465 74.2302 41.3586 73.3778 41.6954C72.5255 42.0323 71.6119 42.1865 70.6962 42.148C68.8102 42.148 67.0015 41.3988 65.6679 40.0652C64.3343 38.7316 63.5851 36.9229 63.5851 35.0369C63.5851 33.1509 64.3343 31.3422 65.6679 30.0086C67.0015 28.675 68.8102 27.9258 70.6962 27.9258C72.5043 27.8989 74.2501 28.5855 75.5555 29.8369L77.4369 27.9554C76.554 27.0821 75.5056 26.3938 74.3532 25.9308C73.2008 25.4678 71.9676 25.2394 70.7258 25.2591C69.4088 25.2079 68.0949 25.423 66.863 25.8917C65.6311 26.3603 64.5065 27.0728 63.5566 27.9865C62.6066 28.9002 61.8509 29.9963 61.3347 31.209C60.8185 32.4218 60.5524 33.7263 60.5524 35.0443C60.5524 36.3623 60.8185 37.6668 61.3347 38.8796C61.8509 40.0923 62.6066 41.1884 63.5566 42.1021C64.5065 43.0158 65.6311 43.7283 66.863 44.1969C68.0949 44.6656 69.4088 44.8807 70.7258 44.8295C71.9931 44.8801 73.2568 44.6621 74.4338 44.1897C75.6109 43.7174 76.6747 43.0014 77.5555 42.0887C79.1112 40.3797 79.9401 38.132 79.8666 35.8221C79.8719 35.2661 79.8272 34.7108 79.7332 34.1628H70.7258ZM137.852 36.2369C137.465 35.1002 136.743 34.1077 135.78 33.3907C134.817 32.6738 133.659 32.2663 132.459 32.2221C131.649 32.2205 130.847 32.3851 130.102 32.7058C129.358 33.0265 128.688 33.4965 128.132 34.0866C127.577 34.6767 127.148 35.3745 126.873 36.1367C126.598 36.899 126.483 37.7096 126.533 38.5184C126.521 39.8708 126.946 41.1909 127.745 42.2817C128.545 43.3725 129.676 44.1754 130.969 44.5704C132.263 44.9655 133.649 44.9315 134.922 44.4735C136.194 44.0155 137.284 43.1582 138.03 42.0295L135.881 40.548C135.561 41.0818 135.107 41.5225 134.564 41.8266C134.021 42.1306 133.407 42.2874 132.785 42.2813C132.143 42.3079 131.508 42.1395 130.963 41.7984C130.419 41.4573 129.99 40.9595 129.733 40.3702L138.163 36.8888L137.852 36.2369ZM129.259 38.3406C129.229 37.8804 129.291 37.4189 129.442 36.983C129.592 36.5471 129.828 36.1456 130.136 35.8021C130.444 35.4586 130.817 35.1799 131.234 34.9824C131.65 34.7848 132.102 34.6724 132.563 34.6517C133.04 34.6226 133.516 34.735 133.929 34.9748C134.343 35.2146 134.677 35.5712 134.889 35.9999L129.259 38.3406ZM122.415 44.4443H125.185V25.9258H122.415V44.4443ZM117.881 33.6295H117.778C117.364 33.1582 116.853 32.7818 116.28 32.5261C115.708 32.2704 115.086 32.1414 114.459 32.148C112.84 32.2265 111.313 32.9249 110.195 34.0985C109.077 35.2721 108.454 36.8308 108.454 38.4517C108.454 40.0726 109.077 41.6314 110.195 42.8049C111.313 43.9785 112.84 44.6769 114.459 44.7554C115.087 44.768 115.71 44.6418 116.284 44.3857C116.858 44.1296 117.368 43.75 117.778 43.2739H117.881V44.1776C117.881 46.5925 116.592 47.8813 114.518 47.8813C113.826 47.8661 113.153 47.6453 112.586 47.247C112.019 46.8487 111.583 46.2909 111.333 45.6443L108.933 46.6369C109.377 47.7513 110.148 48.7049 111.146 49.3715C112.143 50.0381 113.319 50.3863 114.518 50.3702C117.763 50.3702 120.444 48.4591 120.444 43.8073V32.5925H117.881V33.6295ZM114.696 42.3406C113.726 42.2801 112.814 41.8518 112.148 41.1431C111.483 40.4343 111.112 39.4983 111.112 38.5258C111.112 37.5532 111.483 36.6173 112.148 35.9085C112.814 35.1997 113.726 34.7715 114.696 34.711C115.171 34.7314 115.636 34.8471 116.065 35.0512C116.494 35.2552 116.877 35.5434 117.192 35.8986C117.507 36.2539 117.748 36.6689 117.899 37.1189C118.051 37.569 118.11 38.0449 118.074 38.5184C118.114 38.9935 118.058 39.4718 117.908 39.9245C117.759 40.3772 117.519 40.7948 117.203 41.1521C116.887 41.5094 116.502 41.799 116.071 42.0032C115.64 42.2075 115.173 42.3223 114.696 42.3406ZM150.83 25.9258H144.192V44.4443H146.963V37.4221H150.83C151.619 37.4788 152.412 37.3723 153.158 37.1091C153.905 36.8459 154.589 36.4318 155.169 35.8924C155.748 35.3531 156.21 34.7002 156.526 33.9744C156.842 33.2486 157.005 32.4655 157.005 31.6739C157.005 30.8823 156.842 30.0992 156.526 29.3734C156.21 28.6477 155.748 27.9947 155.169 27.4554C154.589 26.9161 153.905 26.502 153.158 26.2388C152.412 25.9756 151.619 25.8691 150.83 25.9258ZM150.83 34.8147H146.963V28.5036H150.889C151.305 28.5036 151.717 28.5856 152.102 28.7449C152.487 28.9042 152.836 29.1377 153.131 29.4321C153.425 29.7265 153.659 30.076 153.818 30.4607C153.977 30.8453 154.059 31.2576 154.059 31.6739C154.059 32.0903 153.977 32.5025 153.818 32.8872C153.659 33.2718 153.425 33.6213 153.131 33.9157C152.836 34.2101 152.487 34.4436 152.102 34.603C151.717 34.7623 151.305 34.8443 150.889 34.8443L150.83 34.8147ZM167.926 32.1628C166.917 32.1006 165.912 32.3355 165.035 32.8384C164.158 33.3413 163.448 34.0902 162.992 34.9925L165.437 36.0147C165.684 35.5693 166.055 35.2051 166.504 34.9658C166.954 34.7266 167.463 34.6226 167.97 34.6665C168.322 34.6255 168.678 34.6548 169.019 34.7529C169.359 34.851 169.676 35.0159 169.952 35.2379C170.228 35.46 170.456 35.7347 170.625 36.0461C170.793 36.3575 170.898 36.6994 170.933 37.0517V37.2295C170.042 36.7612 169.051 36.5171 168.044 36.5184C165.407 36.5184 162.711 37.9999 162.711 40.6962C162.737 41.2693 162.878 41.8313 163.126 42.3488C163.373 42.8664 163.722 43.3289 164.152 43.7089C164.582 44.0889 165.083 44.3787 165.627 44.561C166.171 44.7434 166.746 44.8145 167.318 44.7702C168.014 44.8087 168.707 44.6616 169.326 44.344C169.946 44.0264 170.47 43.5497 170.844 42.9628H170.933V44.4443H173.6V37.3184C173.6 34.0739 171.141 32.1925 167.985 32.1925L167.926 32.1628ZM167.585 42.311C166.681 42.311 165.422 41.8517 165.422 40.7406C165.422 39.2591 166.992 38.7554 168.385 38.7554C169.265 38.7337 170.135 38.9486 170.904 39.3776C170.811 40.1822 170.429 40.9257 169.83 41.4705C169.231 42.0154 168.454 42.3245 167.644 42.3406L167.585 42.311ZM183.318 32.5925L180.148 40.6221H180.059L176.77 32.5925H173.807L178.741 43.8221L175.926 50.0591H178.815L186.4 32.5925H183.318ZM158.43 44.4443H161.185V25.9258H158.43V44.4443Z" fill="white"/>
<path d="M15.4668 11.1706C14.9787 11.7478 14.7296 12.4898 14.7706 13.2447V46.015C14.7201 46.7712 14.9704 47.5166 15.4668 48.0891L15.5706 48.2076L33.9261 29.8521V29.4076L15.5706 11.0669L15.4668 11.1706Z" fill="url(#paint0_linear_90_6573)"/>
<path d="M40.0002 35.9705L33.9261 29.852V29.4076L40.0002 23.2891L40.1335 23.378L47.4076 27.4965C49.4816 28.6668 49.4816 30.5928 47.4076 31.778L40.1631 35.8965L40.0002 35.9705Z" fill="url(#paint1_linear_90_6573)"/>
<path d="M40.1777 35.8817L33.9259 29.6299L15.4666 48.0891C15.8852 48.4618 16.4211 48.6762 16.9812 48.6951C17.5413 48.714 18.0904 48.5363 18.5333 48.1928L40.1777 35.8817Z" fill="url(#paint2_linear_90_6573)"/>
<path d="M40.1777 23.3777L18.5333 11.0814C18.0933 10.7332 17.5446 10.5512 16.9837 10.5674C16.4228 10.5837 15.8856 10.7972 15.4666 11.1703L33.9259 29.6296L40.1777 23.3777Z" fill="url(#paint3_linear_90_6573)"/>
<path opacity="0.2" d="M39.9999 35.748L18.5333 47.9703C18.1065 48.2923 17.5864 48.4666 17.0518 48.4666C16.5171 48.4666 15.997 48.2923 15.5703 47.9703L15.4666 48.074L15.5703 48.1925C15.997 48.5146 16.5171 48.6888 17.0518 48.6888C17.5864 48.6888 18.1065 48.5146 18.5333 48.1925L40.1777 35.8814L39.9999 35.748Z" fill="black"/>
<path opacity="0.12" d="M15.4667 47.8816C14.9908 47.294 14.7576 46.5467 14.8149 45.7927V46.0149C14.7644 46.7711 15.0147 47.5165 15.5111 48.089L15.6149 47.9853L15.4667 47.8816Z" fill="black"/>
<path opacity="0.12" d="M47.4072 31.5558L39.9997 35.7484L40.1331 35.8817L47.4072 31.7632C47.8365 31.5817 48.209 31.2877 48.4854 30.9123C48.7617 30.5368 48.9318 30.0938 48.9775 29.6299C48.8849 30.0515 48.6945 30.4454 48.4218 30.7799C48.149 31.1144 47.8015 31.3802 47.4072 31.5558Z" fill="black"/>
<path opacity="0.25" d="M18.5332 11.289L47.4072 27.7038C47.8015 27.8794 48.1491 28.1452 48.4219 28.4797C48.6946 28.8142 48.885 29.2082 48.9776 29.6297C48.9318 29.1658 48.7618 28.7228 48.4855 28.3474C48.2091 27.9719 47.8366 27.678 47.4072 27.4964L18.5332 11.0816C16.4739 9.8964 14.7702 10.8742 14.7702 13.2445V13.4668C14.8146 11.0964 16.4739 10.1186 18.5332 11.289Z" fill="white"/>
</g>
<defs>
<linearGradient id="paint0_linear_90_6573" x1="32.2965" y1="12.9039" x2="7.43722" y2="37.7632" gradientUnits="userSpaceOnUse">
<stop stop-color="#00A0FF"/>
<stop offset="0.01" stop-color="#00A1FF"/>
<stop offset="0.26" stop-color="#00BEFF"/>
<stop offset="0.51" stop-color="#00D2FF"/>
<stop offset="0.76" stop-color="#00DFFF"/>
<stop offset="1" stop-color="#00E3FF"/>
</linearGradient>
<linearGradient id="paint1_linear_90_6573" x1="50.1187" y1="29.6298" x2="14.2816" y2="29.6298" gradientUnits="userSpaceOnUse">
<stop stop-color="#FFE000"/>
<stop offset="0.41" stop-color="#FFBD00"/>
<stop offset="0.78" stop-color="#FFA500"/>
<stop offset="1" stop-color="#FF9C00"/>
</linearGradient>
<linearGradient id="paint2_linear_90_6573" x1="36.7851" y1="33.0373" x2="3.06658" y2="66.741" gradientUnits="userSpaceOnUse">
<stop stop-color="#FF3A44"/>
<stop offset="1" stop-color="#C31162"/>
</linearGradient>
<linearGradient id="paint3_linear_90_6573" x1="10.8147" y1="0.266622" x2="25.8666" y2="15.3185" gradientUnits="userSpaceOnUse">
<stop stop-color="#32A071"/>
<stop offset="0.07" stop-color="#2DA771"/>
<stop offset="0.48" stop-color="#15CF74"/>
<stop offset="0.8" stop-color="#06E775"/>
<stop offset="1" stop-color="#00F076"/>
</linearGradient>
<clipPath id="clip0_90_6573">
<rect width="200" height="59.2593" fill="white"/>
</clipPath>
</defs>
</svg>
