<svg aria-hidden="true" style="position: absolute; width: 0; height: 0; overflow: hidden;" version="1.1" xmlns="http://www.w3.org/2000/svg" xmlns:xlink="http://www.w3.org/1999/xlink">
<defs>
<symbol id="icon-Badge" viewBox="0 0 109 32">
<path fill="#000" style="fill: var(--color1, #000)" d="M104.523 0h-100.247c-2.215 0-4.010 1.784-4.010 3.984v23.903c0 2.2 1.795 3.984 4.010 3.984h100.247c2.215 0 4.010-1.784 4.010-3.984v-23.903c0-2.2-1.795-3.984-4.010-3.984z"></path>
<path fill="#a6a6a6" style="fill: var(--color2, #a6a6a6)" d="M104.523 0.637c0.893 0 1.75 0.353 2.382 0.98s0.987 1.479 0.987 2.366v23.903c0 0.888-0.355 1.739-0.987 2.366s-1.489 0.98-2.382 0.98h-100.247c-0.893 0-1.75-0.353-2.382-0.98s-0.987-1.479-0.987-2.366v-23.903c0-0.888 0.355-1.739 0.987-2.366s1.488-0.98 2.382-0.98h100.247zM104.523 0h-100.247c-1.063 0-2.083 0.42-2.835 1.167s-1.174 1.76-1.174 2.817v23.903c0 1.057 0.422 2.070 1.174 2.817s1.772 1.167 2.835 1.167h100.247c1.064 0 2.084-0.42 2.836-1.167s1.174-1.76 1.174-2.817v-23.903c0-1.057-0.422-2.070-1.174-2.817s-1.772-1.167-2.836-1.167z"></path>
<path fill="#fff" style="fill: var(--color3, #fff)" d="M38.296 8.159c0.013 0.292-0.033 0.584-0.137 0.858s-0.261 0.524-0.465 0.736c-0.228 0.234-0.503 0.417-0.807 0.538s-0.63 0.177-0.958 0.163c-0.329 0.007-0.656-0.053-0.961-0.176s-0.581-0.308-0.811-0.541c-0.467-0.475-0.729-1.113-0.729-1.777s0.262-1.302 0.729-1.777c0.357-0.347 0.81-0.581 1.301-0.673s0.998-0.038 1.458 0.155c0.289 0.118 0.547 0.301 0.754 0.534l-0.425 0.422c-0.159-0.191-0.361-0.342-0.589-0.441s-0.477-0.145-0.726-0.132c-0.314 0.002-0.623 0.081-0.9 0.229s-0.513 0.362-0.687 0.621c-0.175 0.26-0.282 0.558-0.314 0.869s0.014 0.624 0.132 0.914c0.118 0.289 0.306 0.545 0.547 0.746s0.528 0.339 0.835 0.404c0.307 0.065 0.626 0.054 0.929-0.032s0.579-0.244 0.805-0.46c0.245-0.267 0.387-0.611 0.401-0.972h-1.748v-0.574h2.334c0.018 0.121 0.029 0.244 0.032 0.366z"></path>
<path fill="#fff" style="fill: var(--color3, #fff)" d="M41.969 6.167h-2.165v1.514h1.973v0.574h-1.973v1.514h2.165v0.59h-2.791v-4.781h2.791v0.59z"></path>
<path fill="#fff" style="fill: var(--color3, #fff)" d="M44.6 10.358h-0.617v-4.191h-1.347v-0.59h3.344v0.59h-1.379v4.191z"></path>
<path fill="#fff" style="fill: var(--color3, #fff)" d="M48.337 10.358v-4.781h0.617v4.781h-0.617z"></path>
<path fill="#fff" style="fill: var(--color3, #fff)" d="M51.697 10.358h-0.617v-4.191h-1.347v-0.59h3.304v0.59h-1.339v4.191z"></path>
<path fill="#fff" style="fill: var(--color3, #fff)" d="M59.3 9.737c-0.232 0.23-0.507 0.413-0.81 0.538s-0.627 0.189-0.955 0.189c-0.328 0-0.652-0.064-0.955-0.189s-0.578-0.307-0.81-0.538c-0.453-0.479-0.706-1.111-0.706-1.769s0.252-1.29 0.706-1.769c0.227-0.237 0.501-0.424 0.805-0.549s0.631-0.185 0.96-0.176c0.328-0.005 0.654 0.056 0.957 0.181s0.578 0.31 0.807 0.544c0.23 0.233 0.412 0.51 0.533 0.814s0.18 0.629 0.173 0.955c0.011 0.327-0.047 0.653-0.168 0.957s-0.305 0.581-0.538 0.812zM56.229 9.338c0.171 0.172 0.374 0.309 0.598 0.402s0.465 0.141 0.709 0.141c0.243 0 0.484-0.048 0.708-0.141s0.428-0.23 0.599-0.402c0.346-0.374 0.538-0.863 0.538-1.37s-0.193-0.997-0.538-1.37c-0.171-0.172-0.374-0.309-0.599-0.402s-0.465-0.141-0.708-0.141c-0.244 0-0.484 0.048-0.709 0.141s-0.428 0.23-0.598 0.402c-0.346 0.374-0.538 0.863-0.538 1.37s0.192 0.997 0.538 1.37z"></path>
<path fill="#fff" style="fill: var(--color3, #fff)" d="M60.88 10.358v-4.781h0.746l2.342 3.721v-3.721h0.618v4.781h-0.642l-2.446-3.896v3.896h-0.618z"></path>
<path fill="#fff" style="fill: var(--color3, #fff)" d="M54.913 17.33c-0.676 0.002-1.335 0.202-1.896 0.576s-0.998 0.905-1.255 1.526-0.323 1.303-0.19 1.962c0.133 0.658 0.46 1.262 0.939 1.736s1.088 0.795 1.751 0.925c0.663 0.129 1.35 0.061 1.974-0.198s1.156-0.695 1.53-1.254 0.573-1.216 0.571-1.887c0.006-0.448-0.077-0.892-0.247-1.307s-0.422-0.791-0.742-1.107c-0.319-0.316-0.7-0.565-1.118-0.732s-0.867-0.249-1.317-0.24v0zM54.913 22.772c-0.414 0.029-0.827-0.067-1.186-0.275s-0.646-0.518-0.825-0.89c-0.179-0.372-0.241-0.789-0.178-1.197s0.248-0.787 0.53-1.089c0.283-0.302 0.651-0.513 1.055-0.604s0.828-0.060 1.214 0.090c0.387 0.15 0.718 0.413 0.953 0.753s0.36 0.743 0.361 1.156c0.013 0.261-0.027 0.523-0.117 0.768s-0.229 0.471-0.409 0.663-0.396 0.346-0.636 0.453c-0.241 0.107-0.5 0.166-0.763 0.172zM47.439 17.33c-0.676 0.002-1.336 0.202-1.897 0.576s-0.998 0.905-1.255 1.526-0.323 1.303-0.19 1.962c0.133 0.658 0.46 1.262 0.939 1.736s1.088 0.795 1.751 0.925c0.663 0.129 1.35 0.061 1.973-0.198s1.156-0.695 1.53-1.254 0.573-1.216 0.571-1.887c0.007-0.448-0.078-0.892-0.248-1.307s-0.422-0.791-0.742-1.107c-0.32-0.316-0.7-0.565-1.118-0.732s-0.866-0.249-1.317-0.24v0zM47.439 22.772c-0.414 0.029-0.827-0.067-1.186-0.275s-0.646-0.518-0.825-0.89c-0.179-0.372-0.241-0.789-0.178-1.197s0.248-0.787 0.53-1.089c0.283-0.302 0.65-0.513 1.055-0.604s0.828-0.060 1.215 0.090 0.719 0.413 0.953 0.753c0.234 0.34 0.36 0.743 0.361 1.156 0.013 0.261-0.027 0.523-0.117 0.768s-0.229 0.471-0.409 0.663c-0.179 0.192-0.396 0.346-0.636 0.453s-0.5 0.166-0.763 0.172zM38.553 18.373v1.434h3.465c-0.054 0.676-0.337 1.313-0.802 1.809-0.348 0.352-0.766 0.627-1.227 0.808s-0.956 0.264-1.452 0.243c-1.021 0-2-0.403-2.722-1.12s-1.127-1.69-1.127-2.704c0-1.014 0.406-1.987 1.127-2.704s1.701-1.12 2.722-1.12c0.979-0.014 1.924 0.355 2.63 1.028l1.019-1.012c-0.478-0.47-1.045-0.84-1.669-1.089s-1.291-0.372-1.964-0.361c-0.713-0.028-1.424 0.088-2.091 0.34s-1.276 0.635-1.79 1.127c-0.514 0.491-0.923 1.081-1.203 1.733s-0.423 1.354-0.423 2.063c0 0.709 0.144 1.41 0.423 2.063s0.689 1.242 1.203 1.733c0.514 0.491 1.123 0.875 1.79 1.127s1.378 0.368 2.091 0.34c0.686 0.027 1.37-0.090 2.007-0.344s1.213-0.639 1.69-1.13c0.842-0.919 1.291-2.128 1.251-3.37 0.003-0.299-0.021-0.598-0.072-0.892h-4.876zM74.891 19.489c-0.21-0.611-0.601-1.145-1.122-1.531s-1.148-0.605-1.798-0.629c-0.438-0.001-0.873 0.088-1.276 0.26s-0.766 0.425-1.067 0.743c-0.3 0.317-0.532 0.693-0.681 1.103s-0.212 0.846-0.185 1.281c-0.007 0.727 0.223 1.437 0.657 2.024s1.045 1.018 1.745 1.231 1.451 0.194 2.14-0.052c0.689-0.246 1.279-0.707 1.682-1.314l-1.163-0.797c-0.173 0.287-0.419 0.524-0.714 0.688s-0.626 0.248-0.963 0.245c-0.348 0.014-0.691-0.076-0.986-0.26s-0.527-0.451-0.666-0.768l4.563-1.872-0.168-0.351zM70.239 20.62c-0.016-0.248 0.018-0.496 0.099-0.73s0.209-0.45 0.375-0.635c0.166-0.185 0.369-0.335 0.594-0.441s0.47-0.167 0.719-0.178c0.259-0.016 0.516 0.045 0.74 0.174s0.405 0.321 0.519 0.551l-3.047 1.259zM66.534 23.903h1.5v-9.96h-1.5v9.96zM64.080 18.087h-0.057c-0.224-0.253-0.5-0.456-0.81-0.593s-0.646-0.207-0.986-0.203c-0.876 0.042-1.703 0.418-2.308 1.049s-0.942 1.47-0.942 2.341 0.338 1.71 0.942 2.341c0.605 0.631 1.432 1.007 2.308 1.049 0.34 0.007 0.677-0.061 0.988-0.199s0.587-0.342 0.809-0.598h0.057v0.486c0 1.299-0.698 1.992-1.821 1.992-0.375-0.008-0.739-0.127-1.046-0.341s-0.543-0.514-0.678-0.862l-1.299 0.534c0.241 0.599 0.658 1.112 1.198 1.471s1.177 0.546 1.826 0.537c1.756 0 3.208-1.028 3.208-3.53v-6.032h-1.387v0.558zM62.356 22.772c-0.525-0.033-1.019-0.263-1.379-0.644s-0.561-0.885-0.561-1.408c0-0.523 0.201-1.026 0.561-1.408s0.854-0.612 1.379-0.644c0.257 0.011 0.509 0.073 0.741 0.183s0.439 0.265 0.61 0.456 0.301 0.414 0.383 0.656c0.082 0.242 0.114 0.498 0.094 0.753 0.022 0.256-0.009 0.513-0.090 0.756s-0.211 0.468-0.382 0.66c-0.171 0.192-0.379 0.348-0.613 0.458s-0.486 0.172-0.744 0.181v0zM81.916 13.943h-3.593v9.96h1.5v-3.777h2.093c0.427 0.030 0.857-0.027 1.261-0.168s0.774-0.364 1.088-0.654c0.314-0.29 0.564-0.641 0.735-1.032s0.26-0.812 0.26-1.237c0-0.426-0.089-0.847-0.26-1.237s-0.421-0.742-0.735-1.032c-0.314-0.29-0.684-0.513-1.088-0.654s-0.834-0.199-1.261-0.168v0zM81.916 18.724h-2.093v-3.394h2.125c0.226 0 0.449 0.044 0.657 0.13s0.397 0.211 0.557 0.37c0.159 0.158 0.285 0.346 0.372 0.553s0.131 0.429 0.131 0.652c0 0.224-0.044 0.446-0.131 0.653s-0.213 0.395-0.372 0.553c-0.159 0.158-0.349 0.284-0.557 0.37s-0.431 0.13-0.657 0.13l-0.032-0.016zM91.171 17.298c-0.546-0.033-1.090 0.093-1.565 0.363s-0.859 0.673-1.106 1.159l1.324 0.55c0.133-0.24 0.334-0.435 0.578-0.564s0.519-0.185 0.794-0.161c0.19-0.022 0.383-0.006 0.567 0.046s0.356 0.141 0.505 0.261 0.273 0.267 0.364 0.435c0.091 0.167 0.148 0.351 0.167 0.541v0.096c-0.482-0.252-1.019-0.383-1.564-0.382-1.427 0-2.887 0.797-2.887 2.247 0.014 0.308 0.090 0.611 0.225 0.889s0.323 0.527 0.555 0.731c0.233 0.204 0.505 0.36 0.799 0.458s0.606 0.136 0.915 0.113c0.377 0.021 0.751-0.058 1.087-0.229s0.619-0.427 0.822-0.743h0.048v0.797h1.444v-3.832c0-1.745-1.331-2.757-3.039-2.757l-0.032-0.016zM90.986 22.756c-0.489 0-1.171-0.247-1.171-0.845 0-0.797 0.85-1.068 1.604-1.068 0.476-0.012 0.947 0.104 1.363 0.335-0.050 0.433-0.257 0.833-0.581 1.126s-0.745 0.459-1.183 0.468l-0.032-0.016zM99.503 17.529l-1.716 4.318h-0.048l-1.78-4.318h-1.604l2.67 6.039-1.524 3.354h1.564l4.106-9.394h-1.668zM86.030 23.903h1.492v-9.96h-1.492v9.96z"></path>
<path fill="#000" style="fill: var(--color1, #000)" d="M8.639 6.008c-0.264 0.31-0.399 0.71-0.377 1.116v17.624c-0.027 0.407 0.108 0.808 0.377 1.115l0.056 0.064 9.936-9.872v-0.239l-9.936-9.864-0.056 0.056z"></path>
<path fill="#000" style="fill: var(--color1, #000)" d="M21.92 19.346l-3.288-3.291v-0.239l3.288-3.291 0.072 0.048 3.938 2.215c1.123 0.629 1.123 1.665 0 2.303l-3.922 2.215-0.088 0.040z"></path>
<path fill="#000" style="fill: var(--color1, #000)" d="M22.016 19.298l-3.384-3.362-9.993 9.928c0.227 0.2 0.517 0.316 0.82 0.326s0.6-0.085 0.84-0.27l11.717-6.621z"></path>
<path fill="#000" style="fill: var(--color1, #000)" d="M22.016 12.573l-11.717-6.613c-0.238-0.187-0.535-0.285-0.839-0.276s-0.594 0.124-0.821 0.324l9.993 9.928 3.384-3.362z"></path>
<path fill="#000" style="fill: var(--color1, #000)" opacity="0.2" d="M21.92 19.226l-11.621 6.573c-0.231 0.173-0.513 0.267-0.802 0.267s-0.571-0.094-0.802-0.267v0l-0.056 0.056 0.056 0.064c0.231 0.173 0.513 0.267 0.802 0.267s0.571-0.094 0.802-0.267l11.717-6.621-0.096-0.072z"></path>
<path fill="#000" style="fill: var(--color1, #000)" opacity="0.12" d="M8.639 25.752c-0.258-0.316-0.384-0.718-0.353-1.123v0.12c-0.027 0.407 0.108 0.808 0.377 1.115l0.056-0.056-0.080-0.056z"></path>
<path fill="#000" style="fill: var(--color1, #000)" opacity="0.12" d="M25.93 16.971l-4.010 2.255 0.072 0.072 3.938-2.215c0.232-0.098 0.434-0.256 0.584-0.458s0.242-0.44 0.266-0.69c-0.050 0.227-0.153 0.439-0.301 0.619s-0.336 0.323-0.549 0.417z"></path>
<path fill="#fff" style="fill: var(--color3, #fff)" opacity="0.25" d="M10.299 6.071l15.63 8.828c0.213 0.094 0.402 0.237 0.549 0.417s0.251 0.392 0.301 0.619c-0.025-0.249-0.117-0.488-0.266-0.69s-0.351-0.36-0.584-0.458l-15.63-8.828c-1.115-0.637-2.037-0.112-2.037 1.163v0.12c0.024-1.275 0.922-1.801 2.037-1.171z"></path>
</symbol>
<symbol id="icon-google-play" viewBox="0 0 32 32">
<path d="M0.643 0.494c-0.407 0.383-0.643 0.978-0.643 1.75v27.514c0 0.771 0.236 1.367 0.643 1.749l0.1 0.084 17.173-15.412v-0.364l-17.173-15.412-0.1 0.090z"></path>
<path d="M23.634 21.319l-5.718-5.14v-0.364l5.725-5.14 0.128 0.067 6.78 3.463c1.935 0.983 1.935 2.6 0 3.589l-6.915 3.524z"></path>
<path d="M23.769 21.252l-5.853-5.255-17.273 15.51c0.643 0.607 1.691 0.68 2.882 0.073l20.244-10.328z"></path>
<path d="M23.769 10.743l-20.244-10.328c-1.192-0.6-2.24-0.527-2.882 0.079l17.273 15.503 5.853-5.255z"></path>
</symbol>
</defs>
</svg>
