<svg aria-hidden="true" style="position: absolute; width: 0; height: 0; overflow: hidden;" version="1.1" xmlns="http://www.w3.org/2000/svg" xmlns:xlink="http://www.w3.org/1999/xlink">
<defs>
<symbol id="icon-Badge" viewBox="0 0 109 32">
<path fill="#000" style="fill: var(--color1, #000)" d="M104.523 0h-100.247c-2.215 0-4.010 1.784-4.010 3.984v23.903c0 2.2 1.795 3.984 4.010 3.984h100.247c2.215 0 4.010-1.784 4.010-3.984v-23.903c0-2.2-1.795-3.984-4.010-3.984z"></path>
<path fill="#a6a6a6" style="fill: var(--color2, #a6a6a6)" d="M104.523 0.637c0.893 0 1.75 0.353 2.382 0.98s0.987 1.479 0.987 2.366v23.903c0 0.888-0.355 1.739-0.987 2.366s-1.489 0.98-2.382 0.98h-100.247c-0.893 0-1.75-0.353-2.382-0.98s-0.987-1.479-0.987-2.366v-23.903c0-0.888 0.355-1.739 0.987-2.366s1.488-0.98 2.382-0.98h100.247zM104.523 0h-100.247c-1.063 0-2.083 0.42-2.835 1.167s-1.174 1.76-1.174 2.817v23.903c0 1.057 0.422 2.070 1.174 2.817s1.772 1.167 2.835 1.167h100.247c1.064 0 2.084-0.42 2.836-1.167s1.174-1.76 1.174-2.817v-23.903c0-1.057-0.422-2.070-1.174-2.817s-1.772-1.167-2.836-1.167z"></path>
<path fill="#fff" style="fill: var(--color3, #fff)" d="M38.296 8.159c0.013 0.292-0.033 0.584-0.137 0.858s-0.261 0.524-0.465 0.736c-0.228 0.234-0.503 0.417-0.807 0.538s-0.63 0.177-0.958 0.163c-0.329 0.007-0.656-0.053-0.961-0.176s-0.581-0.308-0.811-0.541c-0.467-0.475-0.729-1.113-0.729-1.777s0.262-1.302 0.729-1.777c0.357-0.347 0.81-0.581 1.301-0.673s0.998-0.038 1.458 0.155c0.289 0.118 0.547 0.301 0.754 0.534l-0.425 0.422c-0.159-0.191-0.361-0.342-0.589-0.441s-0.477-0.145-0.726-0.132c-0.314 0.002-0.623 0.081-0.9 0.229s-0.513 0.362-0.687 0.621c-0.175 0.26-0.282 0.558-0.314 0.869s0.014 0.624 0.132 0.914c0.118 0.289 0.306 0.545 0.547 0.746s0.528 0.339 0.835 0.404c0.307 0.065 0.626 0.054 0.929-0.032s0.579-0.244 0.805-0.46c0.245-0.267 0.387-0.611 0.401-0.972h-1.748v-0.574h2.334c0.018 0.121 0.029 0.244 0.032 0.366z"></path>
<path fill="#fff" style="fill: var(--color3, #fff)" d="M41.969 6.167h-2.165v1.514h1.973v0.574h-1.973v1.514h2.165v0.59h-2.791v-4.781h2.791v0.59z"></path>
<path fill="#fff" style="fill: var(--color3, #fff)" d="M44.6 10.358h-0.617v-4.191h-1.347v-0.59h3.344v0.59h-1.379v4.191z"></path>
<path fill="#fff" style="fill: var(--color3, #fff)" d="M48.337 10.358v-4.781h0.617v4.781h-0.617z"></path>
<path fill="#fff" style="fill: var(--color3, #fff)" d="M51.697 10.358h-0.617v-4.191h-1.347v-0.59h3.304v0.59h-1.339v4.191z"></path>
<path fill="#fff" style="fill: var(--color3, #fff)" d="M59.3 9.737c-0.232 0.23-0.507 0.413-0.81 0.538s-0.627 0.189-0.955 0.189c-0.328 0-0.652-0.064-0.955-0.189s-0.578-0.307-0.81-0.538c-0.453-0.479-0.706-1.111-0.706-1.769s0.252-1.29 0.706-1.769c0.227-0.237 0.501-0.424 0.805-0.549s0.631-0.185 0.96-0.176c0.328-0.005 0.654 0.056 0.957 0.181s0.578 0.31 0.807 0.544c0.23 0.233 0.412 0.51 0.533 0.814s0.18 0.629 0.173 0.955c0.011 0.327-0.047 0.653-0.168 0.957s-0.305 0.581-0.538 0.812zM56.229 9.338c0.171 0.172 0.374 0.309 0.598 0.402s0.465 0.141 0.709 0.141c0.243 0 0.484-0.048 0.708-0.141s0.428-0.23 0.599-0.402c0.346-0.374 0.538-0.863 0.538-1.37s-0.193-0.997-0.538-1.37c-0.171-0.172-0.374-0.309-0.599-0.402s-0.465-0.141-0.708-0.141c-0.244 0-0.484 0.048-0.709 0.141s-0.428 0.23-0.598 0.402c-0.346 0.374-0.538 0.863-0.538 1.37s0.192 0.997 0.538 1.37z"></path>
<path fill="#fff" style="fill: var(--color3, #fff)" d="M60.88 10.358v-4.781h0.746l2.342 3.721v-3.721h0.618v4.781h-0.642l-2.446-3.896v3.896h-0.618z"></path>
<path fill="#fff" style="fill: var(--color3, #fff)" d="M54.913 17.33c-0.676 0.002-1.335 0.202-1.896 0.576s-0.998 0.905-1.255 1.526-0.323 1.303-0.19 1.962c0.133 0.658 0.46 1.262 0.939 1.736s1.088 0.795 1.751 0.925c0.663 0.129 1.35 0.061 1.974-0.198s1.156-0.695 1.53-1.254 0.573-1.216 0.571-1.887c0.006-0.448-0.077-0.892-0.247-1.307s-0.422-0.791-0.742-1.107c-0.319-0.316-0.7-0.565-1.118-0.732s-0.867-0.249-1.317-0.24v0zM54.913 22.772c-0.414 0.029-0.827-0.067-1.186-0.275s-0.646-0.518-0.825-0.89c-0.179-0.372-0.241-0.789-0.178-1.197s0.248-0.787 0.53-1.089c0.283-0.302 0.651-0.513 1.055-0.604s0.828-0.060 1.214 0.090c0.387 0.15 0.718 0.413 0.953 0.753s0.36 0.743 0.361 1.156c0.013 0.261-0.027 0.523-0.117 0.768s-0.229 0.471-0.409 0.663-0.396 0.346-0.636 0.453c-0.241 0.107-0.5 0.166-0.763 0.172zM47.439 17.33c-0.676 0.002-1.336 0.202-1.897 0.576s-0.998 0.905-1.255 1.526-0.323 1.303-0.19 1.962c0.133 0.658 0.46 1.262 0.939 1.736s1.088 0.795 1.751 0.925c0.663 0.129 1.35 0.061 1.973-0.198s1.156-0.695 1.53-1.254 0.573-1.216 0.571-1.887c0.007-0.448-0.078-0.892-0.248-1.307s-0.422-0.791-0.742-1.107c-0.32-0.316-0.7-0.565-1.118-0.732s-0.866-0.249-1.317-0.24v0zM47.439 22.772c-0.414 0.029-0.827-0.067-1.186-0.275s-0.646-0.518-0.825-0.89c-0.179-0.372-0.241-0.789-0.178-1.197s0.248-0.787 0.53-1.089c0.283-0.302 0.65-0.513 1.055-0.604s0.828-0.060 1.215 0.090 0.719 0.413 0.953 0.753c0.234 0.34 0.36 0.743 0.361 1.156 0.013 0.261-0.027 0.523-0.117 0.768s-0.229 0.471-0.409 0.663c-0.179 0.192-0.396 0.346-0.636 0.453s-0.5 0.166-0.763 0.172zM38.553 18.373v1.434h3.465c-0.054 0.676-0.337 1.313-0.802 1.809-0.348 0.352-0.766 0.627-1.227 0.808s-0.956 0.264-1.452 0.243c-1.021 0-2-0.403-2.722-1.12s-1.127-1.69-1.127-2.704c0-1.014 0.406-1.987 1.127-2.704s1.701-1.12 2.722-1.12c0.979-0.014 1.924 0.355 2.63 1.028l1.019-1.012c-0.478-0.47-1.045-0.84-1.669-1.089s-1.291-0.372-1.964-0.361c-0.713-0.028-1.424 0.088-2.091 0.34s-1.276 0.635-1.79 1.127c-0.514 0.491-0.923 1.081-1.203 1.733s-0.423 1.354-0.423 2.063c0 0.709 0.144 1.41 0.423 2.063s0.689 1.242 1.203 1.733c0.514 0.491 1.123 0.875 1.79 1.127s1.378 0.368 2.091 0.34c0.686 0.027 1.37-0.090 2.007-0.344s1.213-0.639 1.69-1.13c0.842-0.919 1.291-2.128 1.251-3.37 0.003-0.299-0.021-0.598-0.072-0.892h-4.876zM74.891 19.489c-0.21-0.611-0.601-1.145-1.122-1.531s-1.148-0.605-1.798-0.629c-0.438-0.001-0.873 0.088-1.276 0.26s-0.766 0.425-1.067 0.743c-0.3 0.317-0.532 0.693-0.681 1.103s-0.212 0.846-0.185 1.281c-0.007 0.727 0.223 1.437 0.657 2.024s1.045 1.018 1.745 1.231 1.451 0.194 2.14-0.052c0.689-0.246 1.279-0.707 1.682-1.314l-1.163-0.797c-0.173 0.287-0.419 0.524-0.714 0.688s-0.626 0.248-0.963 0.245c-0.348 0.014-0.691-0.076-0.986-0.26s-0.527-0.451-0.666-0.768l4.563-1.872-0.168-0.351zM70.239 20.62c-0.016-0.248 0.018-0.496 0.099-0.73s0.209-0.45 0.375-0.635c0.166-0.185 0.369-0.335 0.594-0.441s0.47-0.167 0.719-0.178c0.259-0.016 0.516 0.045 0.74 0.174s0.405 0.321 0.519 0.551l-3.047 1.259zM66.534 23.903h1.5v-9.96h-1.5v9.96zM64.080 18.087h-0.057c-0.224-0.253-0.5-0.456-0.81-0.593s-0.646-0.207-0.986-0.203c-0.876 0.042-1.703 0.418-2.308 1.049s-0.942 1.47-0.942 2.341 0.338 1.71 0.942 2.341c0.605 0.631 1.432 1.007 2.308 1.049 0.34 0.007 0.677-0.061 0.988-0.199s0.587-0.342 0.809-0.598h0.057v0.486c0 1.299-0.698 1.992-1.821 1.992-0.375-0.008-0.739-0.127-1.046-0.341s-0.543-0.514-0.678-0.862l-1.299 0.534c0.241 0.599 0.658 1.112 1.198 1.471s1.177 0.546 1.826 0.537c1.756 0 3.208-1.028 3.208-3.53v-6.032h-1.387v0.558zM62.356 22.772c-0.525-0.033-1.019-0.263-1.379-0.644s-0.561-0.885-0.561-1.408c0-0.523 0.201-1.026 0.561-1.408s0.854-0.612 1.379-0.644c0.257 0.011 0.509 0.073 0.741 0.183s0.439 0.265 0.61 0.456 0.301 0.414 0.383 0.656c0.082 0.242 0.114 0.498 0.094 0.753 0.022 0.256-0.009 0.513-0.090 0.756s-0.211 0.468-0.382 0.66c-0.171 0.192-0.379 0.348-0.613 0.458s-0.486 0.172-0.744 0.181v0zM81.916 13.943h-3.593v9.96h1.5v-3.777h2.093c0.427 0.030 0.857-0.027 1.261-0.168s0.774-0.364 1.088-0.654c0.314-0.29 0.564-0.641 0.735-1.032s0.26-0.812 0.26-1.237c0-0.426-0.089-0.847-0.26-1.237s-0.421-0.742-0.735-1.032c-0.314-0.29-0.684-0.513-1.088-0.654s-0.834-0.199-1.261-0.168v0zM81.916 18.724h-2.093v-3.394h2.125c0.226 0 0.449 0.044 0.657 0.13s0.397 0.211 0.557 0.37c0.159 0.158 0.285 0.346 0.372 0.553s0.131 0.429 0.131 0.652c0 0.224-0.044 0.446-0.131 0.653s-0.213 0.395-0.372 0.553c-0.159 0.158-0.349 0.284-0.557 0.37s-0.431 0.13-0.657 0.13l-0.032-0.016zM91.171 17.298c-0.546-0.033-1.090 0.093-1.565 0.363s-0.859 0.673-1.106 1.159l1.324 0.55c0.133-0.24 0.334-0.435 0.578-0.564s0.519-0.185 0.794-0.161c0.19-0.022 0.383-0.006 0.567 0.046s0.356 0.141 0.505 0.261 0.273 0.267 0.364 0.435c0.091 0.167 0.148 0.351 0.167 0.541v0.096c-0.482-0.252-1.019-0.383-1.564-0.382-1.427 0-2.887 0.797-2.887 2.247 0.014 0.308 0.090 0.611 0.225 0.889s0.323 0.527 0.555 0.731c0.233 0.204 0.505 0.36 0.799 0.458s0.606 0.136 0.915 0.113c0.377 0.021 0.751-0.058 1.087-0.229s0.619-0.427 0.822-0.743h0.048v0.797h1.444v-3.832c0-1.745-1.331-2.757-3.039-2.757l-0.032-0.016zM90.986 22.756c-0.489 0-1.171-0.247-1.171-0.845 0-0.797 0.85-1.068 1.604-1.068 0.476-0.012 0.947 0.104 1.363 0.335-0.050 0.433-0.257 0.833-0.581 1.126s-0.745 0.459-1.183 0.468l-0.032-0.016zM99.503 17.529l-1.716 4.318h-0.048l-1.78-4.318h-1.604l2.67 6.039-1.524 3.354h1.564l4.106-9.394h-1.668zM86.030 23.903h1.492v-9.96h-1.492v9.96z"></path>
<path fill="#000" style="fill: var(--color1, #000)" d="M8.639 6.008c-0.264 0.31-0.399 0.71-0.377 1.116v17.624c-0.027 0.407 0.108 0.808 0.377 1.115l0.056 0.064 9.936-9.872v-0.239l-9.936-9.864-0.056 0.056z"></path>
<path fill="#000" style="fill: var(--color1, #000)" d="M21.92 19.346l-3.288-3.291v-0.239l3.288-3.291 0.072 0.048 3.938 2.215c1.123 0.629 1.123 1.665 0 2.303l-3.922 2.215-0.088 0.040z"></path>
<path fill="#000" style="fill: var(--color1, #000)" d="M22.016 19.298l-3.384-3.362-9.993 9.928c0.227 0.2 0.517 0.316 0.82 0.326s0.6-0.085 0.84-0.27l11.717-6.621z"></path>
<path fill="#000" style="fill: var(--color1, #000)" d="M22.016 12.573l-11.717-6.613c-0.238-0.187-0.535-0.285-0.839-0.276s-0.594 0.124-0.821 0.324l9.993 9.928 3.384-3.362z"></path>
<path fill="#000" style="fill: var(--color1, #000)" opacity="0.2" d="M21.92 19.226l-11.621 6.573c-0.231 0.173-0.513 0.267-0.802 0.267s-0.571-0.094-0.802-0.267v0l-0.056 0.056 0.056 0.064c0.231 0.173 0.513 0.267 0.802 0.267s0.571-0.094 0.802-0.267l11.717-6.621-0.096-0.072z"></path>
<path fill="#000" style="fill: var(--color1, #000)" opacity="0.12" d="M8.639 25.752c-0.258-0.316-0.384-0.718-0.353-1.123v0.12c-0.027 0.407 0.108 0.808 0.377 1.115l0.056-0.056-0.080-0.056z"></path>
<path fill="#000" style="fill: var(--color1, #000)" opacity="0.12" d="M25.93 16.971l-4.010 2.255 0.072 0.072 3.938-2.215c0.232-0.098 0.434-0.256 0.584-0.458s0.242-0.44 0.266-0.69c-0.050 0.227-0.153 0.439-0.301 0.619s-0.336 0.323-0.549 0.417z"></path>
<path fill="#fff" style="fill: var(--color3, #fff)" opacity="0.25" d="M10.299 6.071l15.63 8.828c0.213 0.094 0.402 0.237 0.549 0.417s0.251 0.392 0.301 0.619c-0.025-0.249-0.117-0.488-0.266-0.69s-0.351-0.36-0.584-0.458l-15.63-8.828c-1.115-0.637-2.037-0.112-2.037 1.163v0.12c0.024-1.275 0.922-1.801 2.037-1.171z"></path>
</symbol>
<symbol id="icon-ButtonGoogleDesktop" viewBox="0 0 107 32">
<path fill="#000" style="fill: var(--color1, #000)" d="M102.716 0h-98.766c-2.182 0-3.951 1.769-3.951 3.951v23.704c0 2.182 1.769 3.951 3.951 3.951h98.766c2.182 0 3.95-1.769 3.95-3.951v-23.704c0-2.182-1.769-3.951-3.95-3.951z"></path>
<path fill="#a6a6a6" style="fill: var(--color2, #a6a6a6)" d="M102.716 0.632c0.88 0 1.724 0.35 2.346 0.972s0.972 1.466 0.972 2.347v23.704c0 0.88-0.35 1.724-0.972 2.346s-1.466 0.972-2.346 0.972h-98.766c-0.88 0-1.724-0.35-2.347-0.972s-0.972-1.466-0.972-2.346v-23.704c0-0.88 0.35-1.724 0.972-2.347s1.466-0.972 2.347-0.972h98.766zM102.716 0h-98.766c-1.048 0-2.053 0.416-2.793 1.157s-1.157 1.746-1.157 2.793v23.704c0 1.048 0.416 2.053 1.157 2.793s1.746 1.157 2.793 1.157h98.766c1.047 0 2.052-0.416 2.793-1.157s1.157-1.746 1.157-2.794v-23.704c0-1.048-0.416-2.053-1.157-2.793s-1.746-1.157-2.793-1.157z"></path>
<path fill="#fff" style="fill: var(--color3, #fff)" d="M37.468 8.091c0.013 0.29-0.033 0.579-0.135 0.851s-0.258 0.52-0.458 0.729c-0.224 0.232-0.495 0.414-0.795 0.533s-0.621 0.175-0.943 0.162c-0.324 0.007-0.646-0.052-0.947-0.175s-0.572-0.305-0.799-0.537c-0.46-0.471-0.718-1.103-0.718-1.762s0.258-1.291 0.718-1.762c0.352-0.344 0.798-0.576 1.281-0.668s0.983-0.038 1.437 0.154c0.285 0.117 0.539 0.298 0.743 0.529l-0.419 0.419c-0.157-0.189-0.356-0.339-0.581-0.438s-0.47-0.144-0.715-0.131c-0.31 0.002-0.614 0.080-0.887 0.227s-0.505 0.358-0.677 0.616c-0.172 0.258-0.278 0.553-0.31 0.862s0.013 0.619 0.13 0.906c0.117 0.287 0.302 0.541 0.539 0.74s0.52 0.336 0.823 0.401c0.303 0.064 0.617 0.054 0.915-0.032s0.57-0.242 0.794-0.456c0.241-0.265 0.381-0.606 0.395-0.964h-1.722v-0.569h2.299c0.018 0.12 0.029 0.242 0.032 0.363z"></path>
<path fill="#fff" style="fill: var(--color3, #fff)" d="M41.086 6.116h-2.133v1.501h1.944v0.569h-1.944v1.501h2.133v0.585h-2.75v-4.741h2.75v0.585z"></path>
<path fill="#fff" style="fill: var(--color3, #fff)" d="M43.678 10.272h-0.608v-4.156h-1.327v-0.585h3.295v0.585h-1.359v4.156z"></path>
<path fill="#fff" style="fill: var(--color3, #fff)" d="M47.36 10.272v-4.741h0.608v4.741h-0.608z"></path>
<path fill="#fff" style="fill: var(--color3, #fff)" d="M50.671 10.272h-0.608v-4.156h-1.327v-0.585h3.255v0.585h-1.32v4.156z"></path>
<path fill="#fff" style="fill: var(--color3, #fff)" d="M58.161 9.655c-0.228 0.228-0.499 0.41-0.797 0.533s-0.618 0.187-0.941 0.187c-0.323 0-0.643-0.064-0.941-0.187s-0.57-0.305-0.798-0.533c-0.446-0.475-0.695-1.102-0.695-1.754s0.249-1.279 0.695-1.754c0.223-0.235 0.493-0.42 0.793-0.544s0.621-0.183 0.946-0.175c0.323-0.005 0.644 0.056 0.943 0.18s0.569 0.307 0.795 0.539c0.227 0.231 0.406 0.505 0.525 0.807s0.177 0.623 0.17 0.947c0.010 0.324-0.046 0.647-0.166 0.949s-0.3 0.576-0.53 0.805zM55.135 9.26c0.168 0.171 0.369 0.306 0.59 0.398s0.458 0.14 0.698 0.14c0.239 0 0.477-0.048 0.698-0.14s0.422-0.228 0.59-0.398c0.341-0.37 0.53-0.856 0.53-1.359s-0.189-0.989-0.53-1.359c-0.168-0.171-0.369-0.306-0.59-0.398s-0.458-0.14-0.698-0.14c-0.24 0-0.477 0.048-0.698 0.14s-0.422 0.228-0.59 0.398c-0.341 0.37-0.53 0.856-0.53 1.359s0.189 0.989 0.53 1.359z"></path>
<path fill="#fff" style="fill: var(--color3, #fff)" d="M59.717 10.272v-4.741h0.735l2.307 3.69v-3.69h0.609v4.741h-0.632l-2.41-3.864v3.864h-0.609z"></path>
<path fill="#fff" style="fill: var(--color3, #fff)" d="M53.839 17.185c-0.666 0.002-1.316 0.2-1.869 0.572s-0.983 0.898-1.236 1.514c-0.253 0.616-0.318 1.293-0.187 1.945s0.453 1.252 0.925 1.721c0.472 0.47 1.072 0.789 1.726 0.917s1.33 0.060 1.944-0.196c0.614-0.256 1.139-0.689 1.508-1.243s0.564-1.206 0.563-1.871c0.006-0.444-0.077-0.885-0.244-1.296s-0.416-0.785-0.731-1.098c-0.315-0.313-0.689-0.56-1.101-0.726s-0.853-0.246-1.298-0.238zM53.839 22.582c-0.408 0.029-0.815-0.066-1.169-0.272s-0.637-0.514-0.813-0.883-0.238-0.783-0.176-1.187c0.062-0.404 0.244-0.781 0.523-1.080s0.641-0.508 1.040-0.599 0.816-0.060 1.197 0.090c0.381 0.149 0.708 0.41 0.939 0.747s0.355 0.737 0.356 1.146c0.012 0.259-0.027 0.518-0.116 0.762s-0.226 0.467-0.403 0.657c-0.177 0.19-0.39 0.343-0.627 0.449s-0.492 0.164-0.751 0.17zM46.475 17.185c-0.666 0.002-1.316 0.2-1.869 0.572s-0.983 0.898-1.236 1.514c-0.253 0.616-0.318 1.293-0.187 1.945s0.453 1.252 0.925 1.721c0.472 0.47 1.072 0.789 1.726 0.917s1.33 0.060 1.944-0.196c0.614-0.256 1.139-0.689 1.508-1.243s0.564-1.206 0.563-1.871c0.006-0.444-0.077-0.885-0.244-1.296s-0.416-0.785-0.731-1.098c-0.315-0.313-0.689-0.56-1.102-0.726s-0.853-0.246-1.297-0.238zM46.475 22.582c-0.408 0.029-0.815-0.066-1.169-0.272s-0.637-0.514-0.813-0.883-0.238-0.783-0.176-1.187c0.062-0.404 0.244-0.781 0.523-1.080s0.641-0.508 1.040-0.599c0.399-0.091 0.816-0.060 1.197 0.090s0.708 0.41 0.939 0.747 0.355 0.737 0.356 1.146c0.013 0.259-0.027 0.518-0.116 0.762s-0.226 0.467-0.403 0.657c-0.177 0.19-0.39 0.343-0.626 0.449s-0.492 0.164-0.752 0.17zM37.72 18.22v1.422h3.413c-0.053 0.67-0.332 1.302-0.79 1.794-0.342 0.349-0.754 0.622-1.209 0.802s-0.942 0.262-1.43 0.241c-1.006 0-1.971-0.4-2.682-1.111s-1.111-1.676-1.111-2.682c0-1.006 0.4-1.971 1.111-2.682s1.676-1.111 2.682-1.111c0.964-0.014 1.895 0.352 2.592 1.019l1.003-1.003c-0.471-0.466-1.030-0.833-1.645-1.080s-1.272-0.369-1.935-0.358c-0.702-0.027-1.403 0.087-2.060 0.337s-1.257 0.63-1.763 1.117c-0.507 0.487-0.91 1.072-1.185 1.719s-0.417 1.343-0.417 2.046 0.142 1.399 0.417 2.046c0.275 0.647 0.678 1.231 1.185 1.719s1.106 0.867 1.763 1.117c0.657 0.25 1.358 0.365 2.060 0.337 0.676 0.027 1.35-0.089 1.978-0.341s1.195-0.634 1.665-1.121c0.83-0.911 1.272-2.11 1.233-3.342 0.003-0.297-0.021-0.593-0.071-0.885h-4.804zM73.521 19.326c-0.206-0.606-0.591-1.136-1.105-1.518s-1.131-0.6-1.771-0.623c-0.432-0.001-0.86 0.087-1.257 0.258s-0.754 0.422-1.051 0.736c-0.296 0.315-0.525 0.687-0.671 1.093s-0.208 0.839-0.181 1.27c-0.006 0.721 0.22 1.425 0.646 2.007s1.030 1.010 1.719 1.221c0.69 0.211 1.429 0.193 2.108-0.052s1.26-0.701 1.658-1.303l-1.146-0.79c-0.171 0.285-0.413 0.52-0.702 0.682s-0.617 0.246-0.949 0.242c-0.342 0.014-0.681-0.076-0.972-0.258s-0.519-0.447-0.656-0.762l4.496-1.857-0.166-0.348zM68.938 20.448c-0.016-0.245 0.017-0.492 0.098-0.724s0.206-0.447 0.37-0.63 0.363-0.332 0.586-0.437c0.222-0.105 0.463-0.165 0.709-0.176 0.254-0.016 0.508 0.044 0.729 0.172s0.399 0.318 0.512 0.547l-3.003 1.248zM65.288 23.704h1.477v-9.877h-1.477v9.877zM62.87 17.936h-0.055c-0.221-0.251-0.493-0.452-0.799-0.588s-0.637-0.205-0.971-0.202c-0.863 0.042-1.678 0.414-2.274 1.040s-0.929 1.457-0.929 2.322c0 0.864 0.332 1.696 0.929 2.322s1.411 0.998 2.274 1.040c0.335 0.007 0.667-0.061 0.973-0.197s0.578-0.339 0.797-0.593h0.055v0.482c0 1.288-0.687 1.975-1.794 1.975-0.369-0.008-0.728-0.126-1.030-0.338s-0.535-0.51-0.668-0.855l-1.28 0.529c0.237 0.594 0.648 1.103 1.18 1.458s1.159 0.541 1.798 0.533c1.731 0 3.161-1.019 3.161-3.5v-5.981h-1.367v0.553zM61.171 22.582c-0.517-0.032-1.004-0.261-1.359-0.639s-0.553-0.877-0.553-1.396c0-0.519 0.198-1.018 0.553-1.396s0.842-0.606 1.359-0.639c0.253 0.011 0.501 0.073 0.73 0.181s0.433 0.262 0.601 0.452c0.168 0.189 0.297 0.411 0.377 0.651s0.113 0.494 0.093 0.746c0.021 0.253-0.009 0.508-0.089 0.75s-0.207 0.464-0.376 0.655-0.374 0.345-0.604 0.454c-0.23 0.109-0.479 0.17-0.733 0.18zM80.443 13.827h-3.54v9.877h1.478v-3.745h2.062c0.421 0.030 0.844-0.027 1.242-0.167s0.763-0.361 1.073-0.649c0.309-0.288 0.555-0.636 0.724-1.023s0.255-0.805 0.255-1.227c0-0.422-0.087-0.84-0.255-1.227s-0.415-0.735-0.724-1.023c-0.309-0.288-0.674-0.508-1.073-0.649s-0.821-0.197-1.242-0.167zM80.443 18.568h-2.062v-3.366h2.094c0.222 0 0.442 0.044 0.647 0.129s0.391 0.21 0.549 0.367c0.157 0.157 0.282 0.343 0.366 0.549s0.129 0.425 0.129 0.647c0 0.222-0.044 0.442-0.129 0.647s-0.21 0.392-0.366 0.549c-0.157 0.157-0.343 0.282-0.549 0.367s-0.425 0.129-0.647 0.129l-0.031-0.016zM89.561 17.154c-0.538-0.033-1.074 0.092-1.542 0.36s-0.846 0.668-1.090 1.149l1.304 0.545c0.132-0.238 0.33-0.432 0.569-0.559s0.511-0.183 0.782-0.16c0.188-0.022 0.378-0.006 0.559 0.046s0.35 0.14 0.498 0.259c0.147 0.118 0.269 0.265 0.359 0.431s0.146 0.348 0.164 0.536v0.095c-0.475-0.25-1.004-0.38-1.541-0.379-1.406 0-2.844 0.79-2.844 2.228 0.014 0.306 0.089 0.605 0.221 0.881s0.318 0.523 0.547 0.725 0.497 0.357 0.787 0.454c0.29 0.097 0.597 0.135 0.902 0.112 0.371 0.021 0.741-0.058 1.071-0.227s0.61-0.424 0.81-0.737h0.047v0.79h1.422v-3.8c0-1.73-1.311-2.734-2.995-2.734l-0.031-0.016zM89.379 22.566c-0.482 0-1.154-0.245-1.154-0.838 0-0.79 0.837-1.059 1.58-1.059 0.469-0.012 0.933 0.103 1.343 0.332-0.050 0.429-0.253 0.826-0.573 1.116s-0.734 0.455-1.166 0.464l-0.031-0.016zM97.77 17.383l-1.691 4.282h-0.047l-1.754-4.282h-1.58l2.631 5.989-1.501 3.326h1.541l4.045-9.316h-1.644zM84.496 23.704h1.469v-9.877h-1.469v9.877z"></path>
<path fill="#000" style="fill: var(--color1, #000)" d="M8.249 5.958c-0.26 0.308-0.393 0.704-0.371 1.106v17.477c-0.027 0.403 0.107 0.801 0.371 1.106l0.055 0.063 9.79-9.79v-0.237l-9.79-9.782-0.055 0.055z"></path>
<path fill="#000" style="fill: var(--color1, #000)" d="M21.333 19.184l-3.24-3.263v-0.237l3.24-3.263 0.071 0.047 3.88 2.197c1.106 0.624 1.106 1.651 0 2.283l-3.864 2.197-0.087 0.039z"></path>
<path fill="#000" style="fill: var(--color1, #000)" d="M21.428 19.137l-3.334-3.334-9.845 9.845c0.223 0.199 0.509 0.313 0.808 0.323s0.592-0.085 0.828-0.268l11.544-6.566z"></path>
<path fill="#000" style="fill: var(--color1, #000)" d="M21.428 12.468l-11.544-6.558c-0.235-0.186-0.527-0.283-0.826-0.274s-0.586 0.123-0.809 0.322l9.845 9.845 3.334-3.334z"></path>
<path fill="#000" style="fill: var(--color1, #000)" opacity="0.2" d="M21.333 19.066l-11.449 6.519c-0.228 0.172-0.505 0.265-0.79 0.265s-0.563-0.093-0.79-0.265l-0.055 0.055 0.055 0.063c0.228 0.172 0.505 0.265 0.79 0.265s0.563-0.093 0.79-0.265l11.544-6.566-0.095-0.071z"></path>
<path fill="#000" style="fill: var(--color1, #000)" opacity="0.12" d="M8.249 25.537c-0.254-0.313-0.378-0.712-0.348-1.114v0.119c-0.027 0.403 0.107 0.801 0.371 1.106l0.055-0.055-0.079-0.055z"></path>
<path fill="#000" style="fill: var(--color1, #000)" opacity="0.12" d="M25.284 16.83l-3.951 2.236 0.071 0.071 3.88-2.197c0.229-0.097 0.428-0.254 0.575-0.454s0.238-0.437 0.262-0.684c-0.049 0.225-0.151 0.435-0.296 0.613s-0.331 0.32-0.541 0.414z"></path>
<path fill="#fff" style="fill: var(--color3, #fff)" opacity="0.25" d="M9.884 6.021l15.399 8.755c0.21 0.094 0.396 0.235 0.541 0.414s0.247 0.389 0.296 0.613c-0.024-0.247-0.115-0.484-0.262-0.684s-0.346-0.357-0.575-0.454l-15.399-8.755c-1.098-0.632-2.007-0.111-2.007 1.154v0.119c0.024-1.264 0.909-1.786 2.007-1.162z"></path>
</symbol>
<symbol id="icon-ButtonGoogleDesktopBig" viewBox="0 0 107 32">
<path fill="#000" style="fill: var(--color1, #000)" d="M102.716 0h-98.766c-2.182 0-3.951 1.769-3.951 3.951v23.704c0 2.182 1.769 3.951 3.951 3.951h98.766c2.182 0 3.951-1.769 3.951-3.951v-23.704c0-2.182-1.769-3.951-3.951-3.951z"></path>
<path fill="#a6a6a6" style="fill: var(--color2, #a6a6a6)" d="M102.716 0.632c0.88 0 1.724 0.35 2.346 0.972s0.972 1.466 0.972 2.347v23.704c0 0.88-0.35 1.724-0.972 2.347s-1.466 0.972-2.346 0.972h-98.766c-0.88 0-1.724-0.35-2.347-0.972s-0.972-1.466-0.972-2.347v-23.704c0-0.88 0.35-1.724 0.972-2.347s1.466-0.972 2.347-0.972h98.766zM102.716 0h-98.766c-1.048 0-2.053 0.416-2.793 1.157s-1.157 1.746-1.157 2.793v23.704c0 1.048 0.416 2.053 1.157 2.793s1.746 1.157 2.793 1.157h98.766c1.047 0 2.053-0.416 2.793-1.157s1.157-1.746 1.157-2.794v-23.704c0-1.048-0.416-2.053-1.157-2.793s-1.746-1.157-2.793-1.157z"></path>
<path fill="#fff" style="fill: var(--color3, #fff)" d="M37.468 8.091c0.013 0.29-0.033 0.579-0.135 0.851s-0.258 0.52-0.458 0.729c-0.224 0.232-0.495 0.413-0.795 0.533s-0.621 0.175-0.943 0.162c-0.324 0.007-0.646-0.052-0.947-0.174s-0.572-0.305-0.799-0.537c-0.46-0.471-0.718-1.103-0.718-1.762s0.258-1.291 0.718-1.762c0.352-0.344 0.798-0.576 1.281-0.668s0.983-0.038 1.437 0.154c0.285 0.117 0.539 0.298 0.743 0.529l-0.419 0.419c-0.157-0.189-0.356-0.339-0.581-0.438s-0.47-0.144-0.715-0.131c-0.31 0.002-0.614 0.080-0.887 0.227s-0.505 0.359-0.677 0.616c-0.172 0.258-0.278 0.553-0.31 0.861s0.013 0.619 0.13 0.906 0.302 0.541 0.539 0.74c0.238 0.199 0.52 0.336 0.823 0.401s0.617 0.054 0.915-0.031c0.298-0.085 0.57-0.242 0.794-0.456 0.241-0.265 0.381-0.606 0.395-0.964h-1.722v-0.569h2.299c0.018 0.12 0.029 0.242 0.032 0.363z"></path>
<path fill="#fff" style="fill: var(--color3, #fff)" d="M41.086 6.115h-2.133v1.501h1.944v0.569h-1.944v1.501h2.133v0.585h-2.75v-4.741h2.75v0.585z"></path>
<path fill="#fff" style="fill: var(--color3, #fff)" d="M43.678 10.271h-0.608v-4.156h-1.328v-0.585h3.295v0.585h-1.359v4.156z"></path>
<path fill="#fff" style="fill: var(--color3, #fff)" d="M47.36 10.271v-4.741h0.608v4.741h-0.608z"></path>
<path fill="#fff" style="fill: var(--color3, #fff)" d="M50.67 10.271h-0.608v-4.156h-1.327v-0.585h3.255v0.585h-1.32v4.156z"></path>
<path fill="#fff" style="fill: var(--color3, #fff)" d="M58.161 9.655c-0.228 0.228-0.499 0.41-0.797 0.533s-0.618 0.187-0.941 0.187c-0.323 0-0.643-0.064-0.941-0.187s-0.57-0.305-0.797-0.533c-0.447-0.475-0.695-1.102-0.695-1.754s0.249-1.279 0.695-1.754c0.223-0.235 0.493-0.42 0.793-0.544s0.621-0.183 0.946-0.175c0.323-0.005 0.644 0.056 0.943 0.18s0.57 0.307 0.795 0.539c0.227 0.231 0.406 0.505 0.525 0.807s0.177 0.623 0.17 0.947c0.011 0.324-0.046 0.647-0.166 0.949s-0.3 0.576-0.529 0.805zM55.135 9.26c0.169 0.171 0.369 0.306 0.59 0.398s0.458 0.14 0.698 0.14c0.239 0 0.477-0.048 0.698-0.14s0.422-0.228 0.59-0.398c0.341-0.37 0.53-0.856 0.53-1.359s-0.189-0.989-0.53-1.359c-0.168-0.171-0.369-0.306-0.59-0.398s-0.459-0.14-0.698-0.14c-0.24 0-0.477 0.048-0.698 0.14s-0.422 0.228-0.59 0.398c-0.341 0.37-0.53 0.856-0.53 1.359s0.189 0.989 0.53 1.359z"></path>
<path fill="#fff" style="fill: var(--color3, #fff)" d="M59.718 10.271v-4.741h0.735l2.307 3.69v-3.69h0.608v4.741h-0.632l-2.41-3.864v3.864h-0.608z"></path>
<path fill="#fff" style="fill: var(--color3, #fff)" d="M53.839 17.185c-0.666 0.002-1.316 0.201-1.869 0.572s-0.983 0.898-1.236 1.513c-0.253 0.616-0.318 1.293-0.187 1.945s0.454 1.252 0.925 1.721c0.471 0.47 1.072 0.789 1.725 0.917s1.33 0.060 1.944-0.196c0.614-0.256 1.139-0.689 1.507-1.243s0.564-1.206 0.563-1.871c0.006-0.444-0.077-0.885-0.244-1.296s-0.416-0.785-0.731-1.098c-0.315-0.313-0.69-0.56-1.102-0.726s-0.853-0.246-1.297-0.238zM53.839 22.582c-0.408 0.029-0.815-0.066-1.169-0.272s-0.637-0.513-0.813-0.883-0.238-0.783-0.176-1.187c0.062-0.404 0.244-0.781 0.523-1.080s0.641-0.508 1.039-0.599c0.399-0.091 0.816-0.060 1.197 0.090s0.708 0.41 0.939 0.747c0.231 0.338 0.355 0.737 0.356 1.146 0.012 0.259-0.027 0.518-0.116 0.762s-0.226 0.467-0.403 0.657-0.39 0.343-0.626 0.449c-0.237 0.106-0.492 0.164-0.752 0.17zM46.475 17.185c-0.666 0.002-1.316 0.201-1.869 0.572s-0.983 0.898-1.236 1.513-0.318 1.293-0.187 1.945c0.131 0.653 0.453 1.252 0.925 1.721s1.073 0.789 1.726 0.917c0.653 0.128 1.33 0.060 1.944-0.196s1.139-0.689 1.507-1.243c0.369-0.554 0.564-1.206 0.563-1.871 0.006-0.444-0.076-0.885-0.244-1.296s-0.416-0.785-0.73-1.098c-0.315-0.313-0.69-0.56-1.102-0.726s-0.853-0.246-1.297-0.238zM46.475 22.582c-0.408 0.029-0.815-0.066-1.169-0.272s-0.637-0.513-0.813-0.883c-0.177-0.369-0.238-0.783-0.176-1.187s0.244-0.781 0.522-1.080c0.279-0.299 0.641-0.508 1.040-0.599s0.816-0.060 1.197 0.090c0.381 0.149 0.708 0.41 0.939 0.747s0.355 0.737 0.356 1.146c0.013 0.259-0.026 0.518-0.116 0.762s-0.226 0.467-0.402 0.657-0.39 0.343-0.626 0.449c-0.237 0.106-0.492 0.164-0.752 0.17zM37.721 18.22v1.422h3.413c-0.053 0.67-0.332 1.302-0.79 1.794-0.342 0.349-0.754 0.622-1.209 0.802s-0.942 0.262-1.43 0.241c-1.006 0-1.971-0.4-2.682-1.111s-1.111-1.676-1.111-2.682c0-1.006 0.4-1.971 1.111-2.682s1.676-1.111 2.682-1.111c0.964-0.014 1.895 0.352 2.592 1.019l1.003-1.003c-0.471-0.466-1.030-0.833-1.645-1.080s-1.272-0.369-1.935-0.358c-0.702-0.027-1.403 0.087-2.060 0.337s-1.257 0.63-1.763 1.117c-0.507 0.487-0.91 1.072-1.185 1.719s-0.417 1.343-0.417 2.045c0 0.703 0.142 1.399 0.417 2.045s0.678 1.231 1.185 1.719c0.507 0.487 1.106 0.867 1.763 1.117s1.358 0.365 2.060 0.337c0.676 0.027 1.35-0.089 1.978-0.341s1.195-0.634 1.665-1.12c0.83-0.912 1.272-2.11 1.233-3.342 0.003-0.297-0.021-0.593-0.071-0.885h-4.804zM73.521 19.326c-0.206-0.606-0.591-1.136-1.105-1.518s-1.131-0.6-1.771-0.623c-0.432-0.001-0.86 0.087-1.257 0.258s-0.754 0.422-1.050 0.736c-0.297 0.315-0.525 0.687-0.672 1.093s-0.209 0.839-0.181 1.27c-0.007 0.721 0.22 1.425 0.646 2.007s1.030 1.010 1.719 1.221c0.689 0.211 1.429 0.193 2.108-0.052s1.26-0.701 1.658-1.303l-1.146-0.79c-0.171 0.285-0.413 0.52-0.703 0.682s-0.617 0.246-0.949 0.243c-0.342 0.014-0.681-0.076-0.972-0.258s-0.519-0.447-0.656-0.762l4.496-1.857-0.166-0.348zM68.938 20.448c-0.016-0.245 0.017-0.492 0.097-0.724s0.207-0.447 0.37-0.63c0.164-0.183 0.363-0.332 0.585-0.437s0.463-0.165 0.709-0.176c0.254-0.016 0.508 0.044 0.729 0.172s0.398 0.318 0.512 0.547l-3.002 1.248zM65.288 23.704h1.477v-9.877h-1.477v9.877zM62.87 17.936h-0.055c-0.221-0.251-0.493-0.452-0.798-0.588s-0.637-0.205-0.972-0.202c-0.864 0.042-1.678 0.414-2.274 1.040s-0.929 1.457-0.929 2.322 0.333 1.696 0.929 2.322c0.596 0.626 1.411 0.998 2.274 1.040 0.335 0.007 0.667-0.061 0.973-0.197s0.578-0.339 0.797-0.593h0.055v0.482c0 1.288-0.687 1.975-1.794 1.975-0.37-0.008-0.728-0.126-1.031-0.338s-0.535-0.51-0.668-0.855l-1.28 0.529c0.236 0.594 0.648 1.103 1.18 1.458s1.159 0.541 1.799 0.533c1.731 0 3.161-1.019 3.161-3.5v-5.981h-1.367v0.553zM61.171 22.582c-0.518-0.032-1.004-0.261-1.358-0.639s-0.553-0.877-0.553-1.396 0.198-1.018 0.553-1.396c0.355-0.378 0.841-0.606 1.358-0.639 0.253 0.011 0.501 0.073 0.73 0.181s0.433 0.263 0.601 0.452c0.168 0.189 0.297 0.411 0.377 0.651s0.113 0.494 0.093 0.746c0.021 0.253-0.009 0.509-0.089 0.75s-0.208 0.464-0.376 0.655c-0.169 0.191-0.374 0.345-0.604 0.454s-0.479 0.17-0.733 0.18zM80.442 13.827h-3.54v9.877h1.478v-3.745h2.062c0.421 0.030 0.844-0.027 1.242-0.167s0.763-0.361 1.072-0.649c0.309-0.288 0.556-0.636 0.724-1.023s0.256-0.805 0.256-1.227c0-0.422-0.087-0.84-0.256-1.227s-0.415-0.735-0.724-1.023c-0.309-0.288-0.674-0.508-1.072-0.649s-0.821-0.197-1.242-0.167zM80.442 18.568h-2.062v-3.366h2.094c0.222 0 0.442 0.044 0.647 0.129s0.391 0.21 0.548 0.367 0.282 0.343 0.367 0.549c0.085 0.205 0.129 0.425 0.129 0.647s-0.044 0.442-0.129 0.647c-0.085 0.205-0.21 0.392-0.367 0.549s-0.343 0.282-0.548 0.367c-0.205 0.085-0.425 0.129-0.647 0.129l-0.032-0.016zM89.56 17.154c-0.538-0.033-1.074 0.092-1.542 0.36s-0.847 0.668-1.089 1.149l1.303 0.545c0.132-0.238 0.329-0.432 0.569-0.559s0.512-0.183 0.782-0.16c0.188-0.022 0.378-0.006 0.559 0.046s0.351 0.14 0.498 0.259 0.269 0.265 0.359 0.431c0.090 0.166 0.146 0.348 0.165 0.536v0.095c-0.475-0.25-1.004-0.38-1.541-0.379-1.407 0-2.845 0.79-2.845 2.228 0.014 0.306 0.089 0.605 0.221 0.881s0.318 0.523 0.547 0.725 0.497 0.357 0.787 0.454c0.29 0.097 0.597 0.135 0.902 0.112 0.371 0.020 0.74-0.058 1.071-0.227s0.61-0.424 0.81-0.737h0.047v0.79h1.422v-3.8c0-1.73-1.312-2.734-2.995-2.734l-0.032-0.016zM89.379 22.566c-0.482 0-1.153-0.245-1.153-0.838 0-0.79 0.838-1.059 1.58-1.059 0.47-0.012 0.934 0.103 1.344 0.332-0.050 0.429-0.253 0.826-0.573 1.116s-0.733 0.455-1.165 0.464l-0.032-0.016zM97.77 17.383l-1.691 4.282h-0.047l-1.754-4.282h-1.58l2.631 5.989-1.501 3.326h1.541l4.046-9.316h-1.644zM84.496 23.704h1.469v-9.877h-1.469v9.877z"></path>
<path fill="#000" style="fill: var(--color1, #000)" d="M8.249 5.957c-0.26 0.308-0.393 0.704-0.371 1.106v17.477c-0.027 0.403 0.107 0.801 0.371 1.106l0.055 0.063 9.79-9.79v-0.237l-9.79-9.782-0.055 0.055z"></path>
<path fill="#000" style="fill: var(--color1, #000)" d="M21.333 19.184l-3.239-3.263v-0.237l3.239-3.263 0.071 0.047 3.88 2.197c1.106 0.624 1.106 1.651 0 2.283l-3.864 2.197-0.087 0.040z"></path>
<path fill="#000" style="fill: var(--color1, #000)" d="M21.428 19.137l-3.334-3.334-9.845 9.845c0.223 0.199 0.509 0.313 0.808 0.323s0.592-0.085 0.828-0.268l11.544-6.566z"></path>
<path fill="#000" style="fill: var(--color1, #000)" d="M21.428 12.468l-11.544-6.558c-0.235-0.186-0.527-0.283-0.826-0.274s-0.586 0.123-0.809 0.322l9.845 9.845 3.334-3.334z"></path>
<path fill="#000" style="fill: var(--color1, #000)" opacity="0.2" d="M21.333 19.066l-11.449 6.518c-0.228 0.172-0.505 0.265-0.79 0.265s-0.563-0.093-0.79-0.265l-0.055 0.055 0.055 0.063c0.228 0.172 0.505 0.265 0.79 0.265s0.563-0.093 0.79-0.265l11.544-6.566-0.095-0.071z"></path>
<path fill="#000" style="fill: var(--color1, #000)" opacity="0.12" d="M8.249 25.537c-0.254-0.313-0.378-0.712-0.348-1.114v0.119c-0.027 0.403 0.107 0.801 0.371 1.106l0.055-0.055-0.079-0.055z"></path>
<path fill="#000" style="fill: var(--color1, #000)" opacity="0.12" d="M25.284 16.83l-3.951 2.236 0.071 0.071 3.879-2.197c0.229-0.097 0.428-0.254 0.575-0.454s0.238-0.436 0.262-0.684c-0.049 0.225-0.151 0.435-0.296 0.613s-0.331 0.32-0.541 0.414z"></path>
<path fill="#fff" style="fill: var(--color3, #fff)" opacity="0.25" d="M9.884 6.021l15.399 8.755c0.21 0.094 0.396 0.235 0.541 0.414s0.247 0.388 0.296 0.613c-0.024-0.247-0.115-0.484-0.262-0.684s-0.346-0.357-0.575-0.454l-15.399-8.755c-1.098-0.632-2.007-0.111-2.007 1.154v0.119c0.024-1.264 0.909-1.786 2.007-1.161z"></path>
</symbol>
<symbol id="icon-Frame2427" viewBox="0 0 32 32">
<path d="M2.17 0h27.661c1.198 0 2.169 0.971 2.169 2.17v27.661c0 1.198-0.971 2.169-2.169 2.169h-27.661c-1.198 0-2.17-0.971-2.17-2.169v-27.661c0-1.198 0.971-2.17 2.17-2.17z"></path>
</symbol>
<symbol id="icon-google-play" viewBox="0 0 32 32">
<path d="M0.643 0.494c-0.407 0.383-0.643 0.978-0.643 1.75v27.514c0 0.771 0.236 1.367 0.643 1.749l0.1 0.084 17.173-15.412v-0.364l-17.173-15.412-0.1 0.090z"></path>
<path d="M23.634 21.319l-5.718-5.14v-0.364l5.725-5.14 0.128 0.067 6.78 3.463c1.935 0.983 1.935 2.6 0 3.589l-6.915 3.524z"></path>
<path d="M23.769 21.252l-5.853-5.255-17.273 15.51c0.643 0.607 1.691 0.68 2.882 0.073l20.244-10.328z"></path>
<path d="M23.769 10.743l-20.244-10.328c-1.192-0.6-2.24-0.527-2.882 0.079l17.273 15.503 5.853-5.255z"></path>
</symbol>
<symbol id="icon-Vector" viewBox="0 0 46 32">
<path stroke-linejoin="round" stroke-linecap="round" stroke-miterlimit="4" stroke-width="3.5556" d="M1.778 1.778h42.667M1.778 16h42.667M1.778 30.222h42.667"></path>
</symbol>
</defs>
</svg>
